<svg xmlns="http://www.w3.org/2000/svg" viewBox="0 0 216 216" >
<defs><style>rect{shape-rendering:crispEdges;}.a{fill: #fff;stroke: #000;stroke-width: 5.4964;stroke-miterlimit: 10;}.b{fill: #000;}</style></defs>
<path class="a" d="m159.5 4.3 32.5 18c3.6 2.1 8.4 3.6 8.4 8.1v154.8c-.2 3.9-4.5 6-8.4 8.1l-32.4 18.3"/>
<path class="a" d="M25 3.1h130c5.1.0 9.4 4.3 9.4 9.4v191c0 5.1-4.3 9.4-9.4 9.4H25c-5.1.0-9.4-4.3-9.4-9.4v-191c0-5.1 4.3-9.4 9.4-9.4z"/>
<path class="b" d="M38.5 197.1v2.8h-.9v-7.1h2.6c.8.0 1.4.2 1.9.6.4.4.6.9.6 1.6.0.7-.2 1.2-.6 1.6-.4.4-1 .6-1.9.6h-1.7zm0-3.5v2.8h1.7c.6.0 1-.1 1.2-.4s.4-.6.4-1-.1-.7-.4-1-.6-.4-1.2-.4h-1.7zM43.5 197.2c0-.8.2-1.4.6-1.9.4-.5 1-.8 1.8-.8s1.3.3 1.8.8c.4.5.6 1.1.7 1.9v.2c0 .8-.2 1.4-.6 1.9-.4.5-1 .8-1.8.8-.7.0-1.3-.3-1.8-.8-.4-.5-.6-1.1-.6-1.9v-.2zm.9.1c0 .5.1 1 .4 1.4.2.4.6.6 1.1.6.5.0.9-.2 1.1-.6.3-.4.4-.8.4-1.4v-.1c0-.5-.1-1-.4-1.4-.3-.4-.6-.6-1.1-.6-.5.0-.9.2-1.1.6-.2.4-.4.8-.4 1.4v.1zM56 194.6l-1.5 5.3h-.7l-1.3-4-1.2 4h-.7l-1.5-5.3h.9l1 3.9 1.2-3.9h.7l1.2 4 1-4h.9zM61.1 199c-.2.3-.4.5-.7.7-.3.2-.7.3-1.3.3-.7.0-1.3-.2-1.8-.7-.4-.5-.7-1.1-.7-1.8v-.2c0-.6.1-1.1.3-1.5.2-.4.5-.7.9-.9.4-.2.7-.3 1.1-.3.8.0 1.3.2 1.7.7.3.5.5 1.1.5 1.8v.4h-3.6c0 .5.2.9.4 1.2.3.3.7.5 1.1.5.3.0.6-.1.8-.2s.4-.3.6-.5l.7.5zm-2.1-3.7c-.4.0-.7.1-.9.4s-.4.6-.5 1.1h2.6v-.1c0-.4-.1-.7-.3-1-.1-.3-.4-.4-.9-.4zM64.3 195.4c-.6.0-1 .3-1.2.8v3.8h-.9v-5.3h.9v.6c.3-.5.7-.7 1.3-.7.2.0.3.0.4.1v.8c-.2-.1-.3-.1-.5-.1zM69.7 199c-.2.3-.4.5-.7.7-.3.2-.7.3-1.3.3-.7.0-1.3-.2-1.8-.7-.4-.5-.7-1.1-.7-1.8v-.2c0-.6.1-1.1.3-1.5.2-.4.5-.7.9-.9.4-.2.7-.3 1.1-.3.8.0 1.3.2 1.7.7.3.5.5 1.1.5 1.8v.4h-3.6c0 .5.2.9.4 1.2.3.3.7.5 1.1.5.3.0.6-.1.8-.2s.4-.3.6-.5l.7.5zm-2.1-3.7c-.4.0-.7.1-.9.4s-.4.6-.5 1.1h2.6v-.1c0-.4-.1-.7-.3-1-.1-.3-.5-.4-.9-.4zM74.2 199.9v-.6c-.4.4-.9.7-1.5.7s-1.1-.3-1.5-.8-.6-1.1-.6-1.9v-.1c0-.8.2-1.5.6-2 .4-.5.9-.7 1.5-.7s1.1.2 1.5.6v-2.7h.9v7.5h-.9zm-2.7-2.6c0 .5.1 1 .3 1.4.2.4.6.6 1.1.6.6.0 1-.3 1.2-.8v-2.4c-.3-.5-.7-.8-1.2-.8s-.8.2-1.1.6c-.2.4-.3.8-.3 1.4zM83.4 197.3c0 .8-.2 1.4-.5 1.9s-.9.8-1.5.8c-.7.0-1.2-.2-1.5-.7v.6h-.8v-7.5h.9v2.8c.4-.4.9-.7 1.5-.7.7.0 1.2.2 1.5.7.4.5.5 1.1.5 2v.1zm-2.3-2c-.3.0-.6.1-.8.2-.2.2-.4.4-.5.6v2.3c.1.2.3.4.5.6s.5.2.8.2c.5.0.8-.2 1.1-.6.2-.4.3-.8.3-1.4v-.1c0-.5-.1-1-.3-1.4-.2-.2-.6-.4-1.1-.4zM86.3 200.7c-.3.8-.8 1.3-1.4 1.3h-.2c-.2.0-.4.0-.5-.1v-.7h.2c.3.0.5-.1.7-.2.2-.1.3-.4.4-.7l.2-.5-1.9-5.2h1l1.3 4 1.2-4h1l-2 6.1zM96.2 198.9v1h-4.5v-7.1H93v6.1h3.2zm4 1v-.5c-.3.4-.8.6-1.5.6-.5.0-.9-.2-1.3-.5s-.5-.8-.5-1.5v-3.4h1.2v3.4c0 .4.1.6.3.8.2.1.4.2.6.2.6.0 1-.2 1.2-.6v-3.8h1.2v5.3h-1.2zM104.7 199.1c.3.0.5-.1.7-.3.2-.2.3-.4.3-.6h1.1c0 .5-.2.9-.6 1.3-.4.4-.9.5-1.5.5-.8.0-1.4-.3-1.8-.8s-.6-1.1-.6-1.9v-.2c0-.7.2-1.3.6-1.9.4-.5 1-.8 1.8-.8.6.0 1.2.2 1.5.6s.6.8.6 1.4h-1.1c0-.3-.1-.5-.3-.7-.2-.2-.4-.3-.8-.3-.5.0-.8.2-1 .5-.2.4-.2.7-.2 1.2v.2c0 .4.1.8.2 1.2.3.4.6.6 1.1.6zM107.8 193.3c0-.2.1-.3.2-.5.1-.1.3-.2.5-.2s.4.1.5.2c.1.1.2.3.2.5s-.1.3-.2.5c-.1.1-.3.2-.5.2s-.4-.1-.5-.2c-.2-.2-.2-.3-.2-.5zm1.2 1.3v5.3h-1.2v-5.3h1.2zM113.7 199.9l-.1-.5c-.4.4-.8.6-1.4.6-.6.0-1.1-.3-1.5-.8-.4-.5-.6-1.1-.6-1.9v-.1c0-.8.2-1.5.6-2 .4-.5.9-.7 1.5-.7s1 .2 1.4.6v-2.7h1.2v7.5h-1.1zm-2.4-2.6c0 .5.1.9.3 1.2.2.3.5.5.9.5.5.0.8-.2 1.1-.7V196c-.2-.4-.6-.6-1.1-.6-.4.0-.7.2-.9.5-.2.3-.3.7-.3 1.2v.2zM124 196.3v2.7c-.1.2-.4.4-.8.7s-1 .4-1.8.4c-.9.0-1.6-.3-2.2-.9-.6-.6-.8-1.4-.8-2.5v-.5c0-1.1.3-1.9.8-2.5.5-.6 1.2-.9 2.2-.9.9.0 1.5.2 2 .6.4.4.7 1 .8 1.6H123c-.1-.4-.2-.7-.4-.9-.2-.2-.6-.4-1.1-.4-.6.0-1 .2-1.3.6-.3.4-.4 1-.4 1.8v.5c0 .8.2 1.4.5 1.8s.8.6 1.3.6c.4.0.7.0.9-.1.2-.1.3-.2.4-.3v-1.4h-1.5v-.9h2.6zM127.6 195.7c-.5.0-.9.2-1.1.6v3.6h-1.2v-5.3h1.1v.6c.3-.5.7-.7 1.2-.7.2.0.3.0.4.1v1.1h-.4zM133.1 199c-.2.2-.4.5-.8.7-.3.2-.8.3-1.3.3-.8.0-1.4-.2-1.9-.7s-.7-1.1-.7-1.8v-.2c0-.8.2-1.5.7-2 .5-.5 1-.7 1.7-.7.8.0 1.3.2 1.7.7.4.5.6 1.1.6 1.9v.5h-3.5c0 .4.2.7.4 1 .2.3.6.4 1 .4.5.0 1-.2 1.3-.7l.8.6zm-2.2-3.5c-.3.0-.6.1-.8.3s-.3.5-.4.9h2.3v-.1c0-.3-.1-.6-.3-.8-.1-.2-.4-.3-.8-.3zm7.5 3.5c-.2.2-.4.5-.8.7-.3.2-.8.3-1.3.3-.8.0-1.4-.2-1.9-.7s-.7-1.1-.7-1.8v-.2c0-.8.2-1.5.7-2 .5-.5 1-.7 1.7-.7.8.0 1.3.2 1.7.7.4.5.6 1.1.6 1.9v.5h-3.5c0 .4.2.7.4 1 .2.3.6.4 1 .4.5.0 1-.2 1.3-.7l.8.6zm-2.1-3.5c-.3.0-.6.1-.8.3s-.3.5-.4.9h2.3v-.1c0-.3-.1-.6-.3-.8-.2-.2-.4-.3-.8-.3zM141.7 195.5c-.5.0-.8.2-1.1.6v3.8h-1.2v-5.3h1.1v.6c.4-.5.9-.7 1.5-.7.5.0.9.1 1.2.4s.5.8.5 1.5v3.4h-1.2v-3.4c0-.4-.1-.6-.2-.8-.1.0-.3-.1-.6-.1z"/>
<g><path class="b" d="M121.8 20.5c-.8.0-1.4.3-2 .8-.6.5-.8 1.3-.8 2v26.2c0 1.6 1.3 2.8 2.8 2.8s2.8-1.3 2.8-2.8V23.3c0-.8-.3-1.4-.8-2-.4-.7-1.4-.8-2-.8zM117.1 57.4c0 .8.3 1.4.8 2 .5.6 1.3.8 2 .8h22.6c1.6.0 2.8-1.3 2.8-2.8s-1.3-2.8-2.8-2.8h-22.6c-.8.0-1.4.3-2 .8-.5.4-.8 1.2-.8 2zM141 23.2c-1.6-1.9-3.8-2.8-6.6-2.8h-4.1c-.8.0-1.4.3-2 .8-.5.5-.8 1.3-.8 2v26.2c0 1.6 1.3 2.8 2.8 2.8h4.1c2.8.0 5-.9 6.6-2.8 1.4-1.6 2-3.9 2-6.9V29.8c0-2.7-.6-5.1-2-6.6zm-7.7 2.9h1.3c1.1.0 1.9.2 2.2.6.3.3.8 1.3.8 3.3v12.7c0 2-.5 3-.8 3.3-.3.5-1.1.6-2.2.6h-1.3V26.1z"/><g><path class="b" d="M35.5 30.8c0-4.3 1.1-7 2.8-8.6 1.6-1.5 3.8-1.9 5.7-1.9 1.9.0 4.1.4 5.7 1.9 1.7 1.5 2.8 4.3 2.8 8.6.0.7-.3.9-.9.9s-.9-.3-.9-.9c0-5.9-2.1-8.7-6.6-8.7-4.3.0-6.6 2.8-6.6 8.7v18.7c0 5.9 2.4 8.7 6.6 8.7 4.4.0 6.6-2.8 6.6-8.7.0-.6.3-.9.9-.9s.9.3.9.9c0 4.4-1.1 7-2.8 8.6-1.6 1.6-3.8 2-5.7 2-1.9.0-4-.4-5.7-2-1.7-1.6-2.8-4.1-2.8-8.6V30.8zM75.5 59c.2.5-.2.9-.7 1.1h-.2c-.5.0-.8-.2-.9-.7L71 47.9H60.5l-2.7 11.5c-.2.5-.7.9-1.1.7-.5-.2-.9-.6-.7-1.1l8.8-38c.1-.5.4-.7.9-.7s.8.2.9.7l8.9 38zm-9.8-33.7-4.8 20.8h9.6l-4.8-20.8zM87.9 41.6l-1-.5c-1.2-.5-3.1-1.3-4.7-3-1.7-1.6-3-3.8-3-7.3.0-6 3-10.6 8.5-10.6 5.7.0 8.6 3.7 8.6 10.6.0.5-.4.9-.9.9s-.9-.5-.9-.9c0-6-2.2-8.7-6.7-8.7-4.2.0-6.7 3.6-6.7 8.7.0 2.8 1.1 4.7 2.5 6 1.4 1.3 3 2.1 4.1 2.5l.9.4c1 .5 3 1.2 4.6 2.8 1.7 1.5 3.1 3.8 3.1 7.3.0 2.9-.8 5.4-2.1 7.2-1.5 2-3.7 3-6.4 3-5.7.0-8.5-3.7-8.5-10.5.0-.6.3-.9.9-.9.5.0.9.4.9.9.0 3.8 1 6 2.3 7.2 1.3 1.2 3 1.5 4.4 1.5 4.3.0 6.7-3.1 6.7-8.4.0-2.8-1.1-4.7-2.5-6-.7-.6-1.4-1.1-2.2-1.4l-1.9-.8zM101.7 41.1v17.2h11.5c.5.0.9.4.9.9.0.6-.3.9-.9.9h-12.4c-.6.0-.9-.3-.9-.9v-38c0-.5.4-.9.9-.9h12.4c.5.0.9.4.9.9.0.6-.3.9-.9.9h-11.5v17.1h11.5c.7.0.9.3.9.9.0.5-.4.9-.9.9h-11.5z"/></g></g>
<g transform="translate(35.5,183.85) scale(.50901) rotate(-90)"><rect class="b" height="3.03%" width="3.03%" x="0.0%" y="0.0%"/><rect class="b" height="3.03%" width="3.03%" x="3.03%" y="0.0%"/><rect class="b" height="3.03%" width="3.03%" x="6.06%" y="0.0%"/><rect class="b" height="3.03%" width="3.03%" x="9.09%" y="0.0%"/><rect class="b" height="3.03%" width="3.03%" x="12.12%" y="0.0%"/><rect class="b" height="3.03%" width="3.03%" x="15.15%" y="0.0%"/><rect class="b" height="3.03%" width="3.03%" x="18.18%" y="0.0%"/><circle class="b" cx="31.815%" cy="1.515%" r="1.515%"/><circle class="b" cx="34.845%" cy="1.515%" r="1.515%"/><circle class="b" cx="37.875%" cy="1.515%" r="1.515%"/><circle class="b" cx="40.905%" cy="1.515%" r="1.515%"/><circle class="b" cx="43.935%" cy="1.515%" r="1.515%"/><circle class="b" cx="46.965%" cy="1.515%" r="1.515%"/><circle class="b" cx="49.995%" cy="1.515%" r="1.515%"/><circle class="b" cx="53.025%" cy="1.515%" r="1.515%"/><circle class="b" cx="56.055%" cy="1.515%" r="1.515%"/><circle class="b" cx="59.085%" cy="1.515%" r="1.515%"/><circle class="b" cx="62.115%" cy="1.515%" r="1.515%"/><circle class="b" cx="65.145%" cy="1.515%" r="1.515%"/><circle class="b" cx="68.175%" cy="1.515%" r="1.515%"/><circle class="b" cx="71.205%" cy="1.515%" r="1.515%"/><rect class="b" height="3.03%" width="3.03%" x="78.78%" y="0.0%"/><rect class="b" height="3.03%" width="3.03%" x="81.81%" y="0.0%"/><rect class="b" height="3.03%" width="3.03%" x="84.84%" y="0.0%"/><rect class="b" height="3.03%" width="3.03%" x="87.87%" y="0.0%"/><rect class="b" height="3.03%" width="3.03%" x="90.9%" y="0.0%"/><rect class="b" height="3.03%" width="3.03%" x="93.93%" y="0.0%"/><rect class="b" height="3.03%" width="3.03%" x="96.96%" y="0.0%"/><rect class="b" height="3.03%" width="3.03%" x="0.0%" y="3.03%"/><rect class="b" height="3.03%" width="3.03%" x="18.18%" y="3.03%"/><circle class="b" cx="28.785%" cy="4.545%" r="1.515%"/><circle class="b" cx="31.815%" cy="4.545%" r="1.515%"/><circle class="b" cx="34.845%" cy="4.545%" r="1.515%"/><circle class="b" cx="40.905%" cy="4.545%" r="1.515%"/><circle class="b" cx="43.935%" cy="4.545%" r="1.515%"/><circle class="b" cx="46.965%" cy="4.545%" r="1.515%"/><circle class="b" cx="53.025%" cy="4.545%" r="1.515%"/><circle class="b" cx="62.115%" cy="4.545%" r="1.515%"/><circle class="b" cx="65.145%" cy="4.545%" r="1.515%"/><circle class="b" cx="68.175%" cy="4.545%" r="1.515%"/><rect class="b" height="3.03%" width="3.03%" x="78.78%" y="3.03%"/><rect class="b" height="3.03%" width="3.03%" x="96.96%" y="3.03%"/><rect class="b" height="3.03%" width="3.03%" x="0.0%" y="6.06%"/><rect class="b" height="3.03%" width="3.03%" x="6.06%" y="6.06%"/><rect class="b" height="3.03%" width="3.03%" x="9.09%" y="6.06%"/><rect class="b" height="3.03%" width="3.03%" x="12.12%" y="6.06%"/><rect class="b" height="3.03%" width="3.03%" x="18.18%" y="6.06%"/><circle class="b" cx="25.755%" cy="7.575%" r="1.515%"/><circle class="b" cx="34.845%" cy="7.575%" r="1.515%"/><circle class="b" cx="40.905%" cy="7.575%" r="1.515%"/><circle class="b" cx="46.965%" cy="7.575%" r="1.515%"/><circle class="b" cx="53.025%" cy="7.575%" r="1.515%"/><circle class="b" cx="56.055%" cy="7.575%" r="1.515%"/><circle class="b" cx="65.145%" cy="7.575%" r="1.515%"/><circle class="b" cx="68.175%" cy="7.575%" r="1.515%"/><circle class="b" cx="74.235%" cy="7.575%" r="1.515%"/><rect class="b" height="3.03%" width="3.03%" x="78.78%" y="6.06%"/><rect class="b" height="3.03%" width="3.03%" x="84.84%" y="6.06%"/><rect class="b" height="3.03%" width="3.03%" x="87.87%" y="6.06%"/><rect class="b" height="3.03%" width="3.03%" x="90.9%" y="6.06%"/><rect class="b" height="3.03%" width="3.03%" x="96.96%" y="6.06%"/><rect class="b" height="3.03%" width="3.03%" x="0.0%" y="9.09%"/><rect class="b" height="3.03%" width="3.03%" x="6.06%" y="9.09%"/><rect class="b" height="3.03%" width="3.03%" x="9.09%" y="9.09%"/><rect class="b" height="3.03%" width="3.03%" x="12.12%" y="9.09%"/><rect class="b" height="3.03%" width="3.03%" x="18.18%" y="9.09%"/><circle class="b" cx="25.755%" cy="10.605%" r="1.515%"/><circle class="b" cx="37.875%" cy="10.605%" r="1.515%"/><circle class="b" cx="43.935%" cy="10.605%" r="1.515%"/><circle class="b" cx="49.995%" cy="10.605%" r="1.515%"/><circle class="b" cx="59.085%" cy="10.605%" r="1.515%"/><circle class="b" cx="62.115%" cy="10.605%" r="1.515%"/><circle class="b" cx="65.145%" cy="10.605%" r="1.515%"/><circle class="b" cx="68.175%" cy="10.605%" r="1.515%"/><rect class="b" height="3.03%" width="3.03%" x="78.78%" y="9.09%"/><rect class="b" height="3.03%" width="3.03%" x="84.84%" y="9.09%"/><rect class="b" height="3.03%" width="3.03%" x="87.87%" y="9.09%"/><rect class="b" height="3.03%" width="3.03%" x="90.9%" y="9.09%"/><rect class="b" height="3.03%" width="3.03%" x="96.96%" y="9.09%"/><rect class="b" height="3.03%" width="3.03%" x="0.0%" y="12.12%"/><rect class="b" height="3.03%" width="3.03%" x="6.06%" y="12.12%"/><rect class="b" height="3.03%" width="3.03%" x="9.09%" y="12.12%"/><rect class="b" height="3.03%" width="3.03%" x="12.12%" y="12.12%"/><rect class="b" height="3.03%" width="3.03%" x="18.18%" y="12.12%"/><circle class="b" cx="25.755%" cy="13.635%" r="1.515%"/><circle class="b" cx="31.815%" cy="13.635%" r="1.515%"/><circle class="b" cx="37.875%" cy="13.635%" r="1.515%"/><circle class="b" cx="46.965%" cy="13.635%" r="1.515%"/><circle class="b" cx="53.025%" cy="13.635%" r="1.515%"/><circle class="b" cx="56.055%" cy="13.635%" r="1.515%"/><circle class="b" cx="65.145%" cy="13.635%" r="1.515%"/><circle class="b" cx="68.175%" cy="13.635%" r="1.515%"/><rect class="b" height="3.03%" width="3.03%" x="78.78%" y="12.12%"/><rect class="b" height="3.03%" width="3.03%" x="84.84%" y="12.12%"/><rect class="b" height="3.03%" width="3.03%" x="87.87%" y="12.12%"/><rect class="b" height="3.03%" width="3.03%" x="90.9%" y="12.12%"/><rect class="b" height="3.03%" width="3.03%" x="96.96%" y="12.12%"/><rect class="b" height="3.03%" width="3.03%" x="0.0%" y="15.15%"/><rect class="b" height="3.03%" width="3.03%" x="18.18%" y="15.15%"/><circle class="b" cx="25.755%" cy="16.665%" r="1.515%"/><circle class="b" cx="28.785%" cy="16.665%" r="1.515%"/><circle class="b" cx="31.815%" cy="16.665%" r="1.515%"/><circle class="b" cx="37.875%" cy="16.665%" r="1.515%"/><circle class="b" cx="43.935%" cy="16.665%" r="1.515%"/><circle class="b" cx="46.965%" cy="16.665%" r="1.515%"/><circle class="b" cx="49.995%" cy="16.665%" r="1.515%"/><circle class="b" cx="53.025%" cy="16.665%" r="1.515%"/><circle class="b" cx="62.115%" cy="16.665%" r="1.515%"/><circle class="b" cx="74.235%" cy="16.665%" r="1.515%"/><rect class="b" height="3.03%" width="3.03%" x="78.78%" y="15.15%"/><rect class="b" height="3.03%" width="3.03%" x="96.96%" y="15.15%"/><rect class="b" height="3.03%" width="3.03%" x="0.0%" y="18.18%"/><rect class="b" height="3.03%" width="3.03%" x="3.03%" y="18.18%"/><rect class="b" height="3.03%" width="3.03%" x="6.06%" y="18.18%"/><rect class="b" height="3.03%" width="3.03%" x="9.09%" y="18.18%"/><rect class="b" height="3.03%" width="3.03%" x="12.12%" y="18.18%"/><rect class="b" height="3.03%" width="3.03%" x="15.15%" y="18.18%"/><rect class="b" height="3.03%" width="3.03%" x="18.18%" y="18.18%"/><circle class="b" cx="25.755%" cy="19.695%" r="1.515%"/><circle class="b" cx="31.815%" cy="19.695%" r="1.515%"/><circle class="b" cx="37.875%" cy="19.695%" r="1.515%"/><circle class="b" cx="43.935%" cy="19.695%" r="1.515%"/><circle class="b" cx="49.995%" cy="19.695%" r="1.515%"/><circle class="b" cx="56.055%" cy="19.695%" r="1.515%"/><circle class="b" cx="62.115%" cy="19.695%" r="1.515%"/><circle class="b" cx="68.175%" cy="19.695%" r="1.515%"/><circle class="b" cx="74.235%" cy="19.695%" r="1.515%"/><rect class="b" height="3.03%" width="3.03%" x="78.78%" y="18.18%"/><rect class="b" height="3.03%" width="3.03%" x="81.81%" y="18.18%"/><rect class="b" height="3.03%" width="3.03%" x="84.84%" y="18.18%"/><rect class="b" height="3.03%" width="3.03%" x="87.87%" y="18.18%"/><rect class="b" height="3.03%" width="3.03%" x="90.9%" y="18.18%"/><rect class="b" height="3.03%" width="3.03%" x="93.93%" y="18.18%"/><rect class="b" height="3.03%" width="3.03%" x="96.96%" y="18.18%"/><circle class="b" cx="25.755%" cy="22.725%" r="1.515%"/><circle class="b" cx="28.785%" cy="22.725%" r="1.515%"/><circle class="b" cx="34.845%" cy="22.725%" r="1.515%"/><circle class="b" cx="37.875%" cy="22.725%" r="1.515%"/><circle class="b" cx="43.935%" cy="22.725%" r="1.515%"/><circle class="b" cx="46.965%" cy="22.725%" r="1.515%"/><circle class="b" cx="65.145%" cy="22.725%" r="1.515%"/><circle class="b" cx="71.205%" cy="22.725%" r="1.515%"/><circle class="b" cx="1.515%" cy="25.755%" r="1.515%"/><circle class="b" cx="7.575%" cy="25.755%" r="1.515%"/><circle class="b" cx="10.605%" cy="25.755%" r="1.515%"/><circle class="b" cx="13.635%" cy="25.755%" r="1.515%"/><circle class="b" cx="16.665%" cy="25.755%" r="1.515%"/><circle class="b" cx="19.695%" cy="25.755%" r="1.515%"/><circle class="b" cx="40.905%" cy="25.755%" r="1.515%"/><circle class="b" cx="43.935%" cy="25.755%" r="1.515%"/><circle class="b" cx="46.965%" cy="25.755%" r="1.515%"/><circle class="b" cx="49.995%" cy="25.755%" r="1.515%"/><circle class="b" cx="53.025%" cy="25.755%" r="1.515%"/><circle class="b" cx="56.055%" cy="25.755%" r="1.515%"/><circle class="b" cx="71.205%" cy="25.755%" r="1.515%"/><circle class="b" cx="80.295%" cy="25.755%" r="1.515%"/><circle class="b" cx="83.325%" cy="25.755%" r="1.515%"/><circle class="b" cx="86.355%" cy="25.755%" r="1.515%"/><circle class="b" cx="89.385%" cy="25.755%" r="1.515%"/><circle class="b" cx="92.415%" cy="25.755%" r="1.515%"/><circle class="b" cx="13.635%" cy="28.785%" r="1.515%"/><circle class="b" cx="22.725%" cy="28.785%" r="1.515%"/><circle class="b" cx="28.785%" cy="28.785%" r="1.515%"/><circle class="b" cx="31.815%" cy="28.785%" r="1.515%"/><circle class="b" cx="34.845%" cy="28.785%" r="1.515%"/><circle class="b" cx="43.935%" cy="28.785%" r="1.515%"/><circle class="b" cx="56.055%" cy="28.785%" r="1.515%"/><circle class="b" cx="59.085%" cy="28.785%" r="1.515%"/><circle class="b" cx="62.115%" cy="28.785%" r="1.515%"/><circle class="b" cx="65.145%" cy="28.785%" r="1.515%"/><circle class="b" cx="71.205%" cy="28.785%" r="1.515%"/><circle class="b" cx="80.295%" cy="28.785%" r="1.515%"/><circle class="b" cx="83.325%" cy="28.785%" r="1.515%"/><circle class="b" cx="89.385%" cy="28.785%" r="1.515%"/><circle class="b" cx="92.415%" cy="28.785%" r="1.515%"/><circle class="b" cx="1.515%" cy="31.815%" r="1.515%"/><circle class="b" cx="7.575%" cy="31.815%" r="1.515%"/><circle class="b" cx="10.605%" cy="31.815%" r="1.515%"/><circle class="b" cx="13.635%" cy="31.815%" r="1.515%"/><circle class="b" cx="19.695%" cy="31.815%" r="1.515%"/><circle class="b" cx="31.815%" cy="31.815%" r="1.515%"/><circle class="b" cx="46.965%" cy="31.815%" r="1.515%"/><circle class="b" cx="56.055%" cy="31.815%" r="1.515%"/><circle class="b" cx="65.145%" cy="31.815%" r="1.515%"/><circle class="b" cx="77.265%" cy="31.815%" r="1.515%"/><circle class="b" cx="86.355%" cy="31.815%" r="1.515%"/><circle class="b" cx="92.415%" cy="31.815%" r="1.515%"/><circle class="b" cx="95.445%" cy="31.815%" r="1.515%"/><circle class="b" cx="4.545%" cy="34.845%" r="1.515%"/><circle class="b" cx="7.575%" cy="34.845%" r="1.515%"/><circle class="b" cx="16.665%" cy="34.845%" r="1.515%"/><circle class="b" cx="25.755%" cy="34.845%" r="1.515%"/><circle class="b" cx="28.785%" cy="34.845%" r="1.515%"/><circle class="b" cx="31.815%" cy="34.845%" r="1.515%"/><circle class="b" cx="34.845%" cy="34.845%" r="1.515%"/><circle class="b" cx="37.875%" cy="34.845%" r="1.515%"/><circle class="b" cx="43.935%" cy="34.845%" r="1.515%"/><circle class="b" cx="49.995%" cy="34.845%" r="1.515%"/><circle class="b" cx="59.085%" cy="34.845%" r="1.515%"/><circle class="b" cx="62.115%" cy="34.845%" r="1.515%"/><circle class="b" cx="65.145%" cy="34.845%" r="1.515%"/><circle class="b" cx="68.175%" cy="34.845%" r="1.515%"/><circle class="b" cx="77.265%" cy="34.845%" r="1.515%"/><circle class="b" cx="80.295%" cy="34.845%" r="1.515%"/><circle class="b" cx="86.355%" cy="34.845%" r="1.515%"/><circle class="b" cx="89.385%" cy="34.845%" r="1.515%"/><circle class="b" cx="92.415%" cy="34.845%" r="1.515%"/><circle class="b" cx="95.445%" cy="34.845%" r="1.515%"/><circle class="b" cx="98.475%" cy="34.845%" r="1.515%"/><circle class="b" cx="10.605%" cy="37.875%" r="1.515%"/><circle class="b" cx="13.635%" cy="37.875%" r="1.515%"/><circle class="b" cx="19.695%" cy="37.875%" r="1.515%"/><circle class="b" cx="22.725%" cy="37.875%" r="1.515%"/><circle class="b" cx="34.845%" cy="37.875%" r="1.515%"/><circle class="b" cx="37.875%" cy="37.875%" r="1.515%"/><circle class="b" cx="46.965%" cy="37.875%" r="1.515%"/><circle class="b" cx="56.055%" cy="37.875%" r="1.515%"/><circle class="b" cx="59.085%" cy="37.875%" r="1.515%"/><circle class="b" cx="68.175%" cy="37.875%" r="1.515%"/><circle class="b" cx="71.205%" cy="37.875%" r="1.515%"/><circle class="b" cx="74.235%" cy="37.875%" r="1.515%"/><circle class="b" cx="77.265%" cy="37.875%" r="1.515%"/><circle class="b" cx="86.355%" cy="37.875%" r="1.515%"/><circle class="b" cx="89.385%" cy="37.875%" r="1.515%"/><circle class="b" cx="98.475%" cy="37.875%" r="1.515%"/><circle class="b" cx="1.515%" cy="40.905%" r="1.515%"/><circle class="b" cx="13.635%" cy="40.905%" r="1.515%"/><circle class="b" cx="16.665%" cy="40.905%" r="1.515%"/><circle class="b" cx="22.725%" cy="40.905%" r="1.515%"/><circle class="b" cx="28.785%" cy="40.905%" r="1.515%"/><circle class="b" cx="31.815%" cy="40.905%" r="1.515%"/><circle class="b" cx="34.845%" cy="40.905%" r="1.515%"/><circle class="b" cx="40.905%" cy="40.905%" r="1.515%"/><circle class="b" cx="43.935%" cy="40.905%" r="1.515%"/><circle class="b" cx="46.965%" cy="40.905%" r="1.515%"/><circle class="b" cx="49.995%" cy="40.905%" r="1.515%"/><circle class="b" cx="53.025%" cy="40.905%" r="1.515%"/><circle class="b" cx="62.115%" cy="40.905%" r="1.515%"/><circle class="b" cx="68.175%" cy="40.905%" r="1.515%"/><circle class="b" cx="80.295%" cy="40.905%" r="1.515%"/><circle class="b" cx="83.325%" cy="40.905%" r="1.515%"/><circle class="b" cx="95.445%" cy="40.905%" r="1.515%"/><circle class="b" cx="98.475%" cy="40.905%" r="1.515%"/><circle class="b" cx="4.545%" cy="43.935%" r="1.515%"/><circle class="b" cx="10.605%" cy="43.935%" r="1.515%"/><circle class="b" cx="13.635%" cy="43.935%" r="1.515%"/><circle class="b" cx="16.665%" cy="43.935%" r="1.515%"/><circle class="b" cx="19.695%" cy="43.935%" r="1.515%"/><circle class="b" cx="22.725%" cy="43.935%" r="1.515%"/><circle class="b" cx="31.815%" cy="43.935%" r="1.515%"/><circle class="b" cx="34.845%" cy="43.935%" r="1.515%"/><circle class="b" cx="43.935%" cy="43.935%" r="1.515%"/><circle class="b" cx="53.025%" cy="43.935%" r="1.515%"/><circle class="b" cx="59.085%" cy="43.935%" r="1.515%"/><circle class="b" cx="68.175%" cy="43.935%" r="1.515%"/><circle class="b" cx="77.265%" cy="43.935%" r="1.515%"/><circle class="b" cx="80.295%" cy="43.935%" r="1.515%"/><circle class="b" cx="86.355%" cy="43.935%" r="1.515%"/><circle class="b" cx="95.445%" cy="43.935%" r="1.515%"/><circle class="b" cx="4.545%" cy="46.965%" r="1.515%"/><circle class="b" cx="13.635%" cy="46.965%" r="1.515%"/><circle class="b" cx="22.725%" cy="46.965%" r="1.515%"/><circle class="b" cx="28.785%" cy="46.965%" r="1.515%"/><circle class="b" cx="31.815%" cy="46.965%" r="1.515%"/><circle class="b" cx="49.995%" cy="46.965%" r="1.515%"/><circle class="b" cx="59.085%" cy="46.965%" r="1.515%"/><circle class="b" cx="62.115%" cy="46.965%" r="1.515%"/><circle class="b" cx="65.145%" cy="46.965%" r="1.515%"/><circle class="b" cx="71.205%" cy="46.965%" r="1.515%"/><circle class="b" cx="74.235%" cy="46.965%" r="1.515%"/><circle class="b" cx="77.265%" cy="46.965%" r="1.515%"/><circle class="b" cx="80.295%" cy="46.965%" r="1.515%"/><circle class="b" cx="83.325%" cy="46.965%" r="1.515%"/><circle class="b" cx="89.385%" cy="46.965%" r="1.515%"/><circle class="b" cx="92.415%" cy="46.965%" r="1.515%"/><circle class="b" cx="7.575%" cy="49.995%" r="1.515%"/><circle class="b" cx="13.635%" cy="49.995%" r="1.515%"/><circle class="b" cx="19.695%" cy="49.995%" r="1.515%"/><circle class="b" cx="28.785%" cy="49.995%" r="1.515%"/><circle class="b" cx="34.845%" cy="49.995%" r="1.515%"/><circle class="b" cx="53.025%" cy="49.995%" r="1.515%"/><circle class="b" cx="59.085%" cy="49.995%" r="1.515%"/><circle class="b" cx="68.175%" cy="49.995%" r="1.515%"/><circle class="b" cx="71.205%" cy="49.995%" r="1.515%"/><circle class="b" cx="74.235%" cy="49.995%" r="1.515%"/><circle class="b" cx="77.265%" cy="49.995%" r="1.515%"/><circle class="b" cx="83.325%" cy="49.995%" r="1.515%"/><circle class="b" cx="86.355%" cy="49.995%" r="1.515%"/><circle class="b" cx="92.415%" cy="49.995%" r="1.515%"/><circle class="b" cx="98.475%" cy="49.995%" r="1.515%"/><circle class="b" cx="1.515%" cy="53.025%" r="1.515%"/><circle class="b" cx="4.545%" cy="53.025%" r="1.515%"/><circle class="b" cx="7.575%" cy="53.025%" r="1.515%"/><circle class="b" cx="10.605%" cy="53.025%" r="1.515%"/><circle class="b" cx="13.635%" cy="53.025%" r="1.515%"/><circle class="b" cx="16.665%" cy="53.025%" r="1.515%"/><circle class="b" cx="25.755%" cy="53.025%" r="1.515%"/><circle class="b" cx="40.905%" cy="53.025%" r="1.515%"/><circle class="b" cx="49.995%" cy="53.025%" r="1.515%"/><circle class="b" cx="53.025%" cy="53.025%" r="1.515%"/><circle class="b" cx="56.055%" cy="53.025%" r="1.515%"/><circle class="b" cx="59.085%" cy="53.025%" r="1.515%"/><circle class="b" cx="65.145%" cy="53.025%" r="1.515%"/><circle class="b" cx="71.205%" cy="53.025%" r="1.515%"/><circle class="b" cx="74.235%" cy="53.025%" r="1.515%"/><circle class="b" cx="80.295%" cy="53.025%" r="1.515%"/><circle class="b" cx="83.325%" cy="53.025%" r="1.515%"/><circle class="b" cx="89.385%" cy="53.025%" r="1.515%"/><circle class="b" cx="92.415%" cy="53.025%" r="1.515%"/><circle class="b" cx="1.515%" cy="56.055%" r="1.515%"/><circle class="b" cx="7.575%" cy="56.055%" r="1.515%"/><circle class="b" cx="10.605%" cy="56.055%" r="1.515%"/><circle class="b" cx="16.665%" cy="56.055%" r="1.515%"/><circle class="b" cx="19.695%" cy="56.055%" r="1.515%"/><circle class="b" cx="22.725%" cy="56.055%" r="1.515%"/><circle class="b" cx="34.845%" cy="56.055%" r="1.515%"/><circle class="b" cx="40.905%" cy="56.055%" r="1.515%"/><circle class="b" cx="46.965%" cy="56.055%" r="1.515%"/><circle class="b" cx="53.025%" cy="56.055%" r="1.515%"/><circle class="b" cx="62.115%" cy="56.055%" r="1.515%"/><circle class="b" cx="65.145%" cy="56.055%" r="1.515%"/><circle class="b" cx="68.175%" cy="56.055%" r="1.515%"/><circle class="b" cx="74.235%" cy="56.055%" r="1.515%"/><circle class="b" cx="77.265%" cy="56.055%" r="1.515%"/><circle class="b" cx="80.295%" cy="56.055%" r="1.515%"/><circle class="b" cx="83.325%" cy="56.055%" r="1.515%"/><circle class="b" cx="86.355%" cy="56.055%" r="1.515%"/><circle class="b" cx="92.415%" cy="56.055%" r="1.515%"/><circle class="b" cx="95.445%" cy="56.055%" r="1.515%"/><circle class="b" cx="13.635%" cy="59.085%" r="1.515%"/><circle class="b" cx="16.665%" cy="59.085%" r="1.515%"/><circle class="b" cx="34.845%" cy="59.085%" r="1.515%"/><circle class="b" cx="43.935%" cy="59.085%" r="1.515%"/><circle class="b" cx="46.965%" cy="59.085%" r="1.515%"/><circle class="b" cx="53.025%" cy="59.085%" r="1.515%"/><circle class="b" cx="56.055%" cy="59.085%" r="1.515%"/><circle class="b" cx="59.085%" cy="59.085%" r="1.515%"/><circle class="b" cx="62.115%" cy="59.085%" r="1.515%"/><circle class="b" cx="65.145%" cy="59.085%" r="1.515%"/><circle class="b" cx="68.175%" cy="59.085%" r="1.515%"/><circle class="b" cx="71.205%" cy="59.085%" r="1.515%"/><circle class="b" cx="80.295%" cy="59.085%" r="1.515%"/><circle class="b" cx="83.325%" cy="59.085%" r="1.515%"/><circle class="b" cx="86.355%" cy="59.085%" r="1.515%"/><circle class="b" cx="89.385%" cy="59.085%" r="1.515%"/><circle class="b" cx="92.415%" cy="59.085%" r="1.515%"/><circle class="b" cx="95.445%" cy="59.085%" r="1.515%"/><circle class="b" cx="7.575%" cy="62.115%" r="1.515%"/><circle class="b" cx="16.665%" cy="62.115%" r="1.515%"/><circle class="b" cx="19.695%" cy="62.115%" r="1.515%"/><circle class="b" cx="25.755%" cy="62.115%" r="1.515%"/><circle class="b" cx="28.785%" cy="62.115%" r="1.515%"/><circle class="b" cx="31.815%" cy="62.115%" r="1.515%"/><circle class="b" cx="34.845%" cy="62.115%" r="1.515%"/><circle class="b" cx="40.905%" cy="62.115%" r="1.515%"/><circle class="b" cx="49.995%" cy="62.115%" r="1.515%"/><circle class="b" cx="62.115%" cy="62.115%" r="1.515%"/><circle class="b" cx="74.235%" cy="62.115%" r="1.515%"/><circle class="b" cx="83.325%" cy="62.115%" r="1.515%"/><circle class="b" cx="89.385%" cy="62.115%" r="1.515%"/><circle class="b" cx="98.475%" cy="62.115%" r="1.515%"/><circle class="b" cx="1.515%" cy="65.145%" r="1.515%"/><circle class="b" cx="7.575%" cy="65.145%" r="1.515%"/><circle class="b" cx="22.725%" cy="65.145%" r="1.515%"/><circle class="b" cx="31.815%" cy="65.145%" r="1.515%"/><circle class="b" cx="40.905%" cy="65.145%" r="1.515%"/><circle class="b" cx="46.965%" cy="65.145%" r="1.515%"/><circle class="b" cx="56.055%" cy="65.145%" r="1.515%"/><circle class="b" cx="71.205%" cy="65.145%" r="1.515%"/><circle class="b" cx="77.265%" cy="65.145%" r="1.515%"/><circle class="b" cx="80.295%" cy="65.145%" r="1.515%"/><circle class="b" cx="89.385%" cy="65.145%" r="1.515%"/><circle class="b" cx="92.415%" cy="65.145%" r="1.515%"/><circle class="b" cx="98.475%" cy="65.145%" r="1.515%"/><circle class="b" cx="1.515%" cy="68.175%" r="1.515%"/><circle class="b" cx="7.575%" cy="68.175%" r="1.515%"/><circle class="b" cx="10.605%" cy="68.175%" r="1.515%"/><circle class="b" cx="16.665%" cy="68.175%" r="1.515%"/><circle class="b" cx="19.695%" cy="68.175%" r="1.515%"/><circle class="b" cx="22.725%" cy="68.175%" r="1.515%"/><circle class="b" cx="31.815%" cy="68.175%" r="1.515%"/><circle class="b" cx="34.845%" cy="68.175%" r="1.515%"/><circle class="b" cx="37.875%" cy="68.175%" r="1.515%"/><circle class="b" cx="43.935%" cy="68.175%" r="1.515%"/><circle class="b" cx="46.965%" cy="68.175%" r="1.515%"/><circle class="b" cx="49.995%" cy="68.175%" r="1.515%"/><circle class="b" cx="53.025%" cy="68.175%" r="1.515%"/><circle class="b" cx="56.055%" cy="68.175%" r="1.515%"/><circle class="b" cx="62.115%" cy="68.175%" r="1.515%"/><circle class="b" cx="65.145%" cy="68.175%" r="1.515%"/><circle class="b" cx="68.175%" cy="68.175%" r="1.515%"/><circle class="b" cx="77.265%" cy="68.175%" r="1.515%"/><circle class="b" cx="86.355%" cy="68.175%" r="1.515%"/><circle class="b" cx="95.445%" cy="68.175%" r="1.515%"/><circle class="b" cx="1.515%" cy="71.205%" r="1.515%"/><circle class="b" cx="7.575%" cy="71.205%" r="1.515%"/><circle class="b" cx="10.605%" cy="71.205%" r="1.515%"/><circle class="b" cx="28.785%" cy="71.205%" r="1.515%"/><circle class="b" cx="34.845%" cy="71.205%" r="1.515%"/><circle class="b" cx="37.875%" cy="71.205%" r="1.515%"/><circle class="b" cx="40.905%" cy="71.205%" r="1.515%"/><circle class="b" cx="43.935%" cy="71.205%" r="1.515%"/><circle class="b" cx="46.965%" cy="71.205%" r="1.515%"/><circle class="b" cx="65.145%" cy="71.205%" r="1.515%"/><circle class="b" cx="83.325%" cy="71.205%" r="1.515%"/><circle class="b" cx="89.385%" cy="71.205%" r="1.515%"/><circle class="b" cx="92.415%" cy="71.205%" r="1.515%"/><circle class="b" cx="1.515%" cy="74.235%" r="1.515%"/><circle class="b" cx="7.575%" cy="74.235%" r="1.515%"/><circle class="b" cx="13.635%" cy="74.235%" r="1.515%"/><circle class="b" cx="16.665%" cy="74.235%" r="1.515%"/><circle class="b" cx="19.695%" cy="74.235%" r="1.515%"/><circle class="b" cx="22.725%" cy="74.235%" r="1.515%"/><circle class="b" cx="25.755%" cy="74.235%" r="1.515%"/><circle class="b" cx="28.785%" cy="74.235%" r="1.515%"/><circle class="b" cx="34.845%" cy="74.235%" r="1.515%"/><circle class="b" cx="40.905%" cy="74.235%" r="1.515%"/><circle class="b" cx="46.965%" cy="74.235%" r="1.515%"/><circle class="b" cx="53.025%" cy="74.235%" r="1.515%"/><circle class="b" cx="56.055%" cy="74.235%" r="1.515%"/><circle class="b" cx="68.175%" cy="74.235%" r="1.515%"/><circle class="b" cx="74.235%" cy="74.235%" r="1.515%"/><circle class="b" cx="77.265%" cy="74.235%" r="1.515%"/><circle class="b" cx="80.295%" cy="74.235%" r="1.515%"/><circle class="b" cx="83.325%" cy="74.235%" r="1.515%"/><circle class="b" cx="86.355%" cy="74.235%" r="1.515%"/><circle class="b" cx="25.755%" cy="77.265%" r="1.515%"/><circle class="b" cx="31.815%" cy="77.265%" r="1.515%"/><circle class="b" cx="37.875%" cy="77.265%" r="1.515%"/><circle class="b" cx="40.905%" cy="77.265%" r="1.515%"/><circle class="b" cx="49.995%" cy="77.265%" r="1.515%"/><circle class="b" cx="56.055%" cy="77.265%" r="1.515%"/><circle class="b" cx="59.085%" cy="77.265%" r="1.515%"/><circle class="b" cx="62.115%" cy="77.265%" r="1.515%"/><circle class="b" cx="71.205%" cy="77.265%" r="1.515%"/><circle class="b" cx="74.235%" cy="77.265%" r="1.515%"/><circle class="b" cx="86.355%" cy="77.265%" r="1.515%"/><circle class="b" cx="92.415%" cy="77.265%" r="1.515%"/><circle class="b" cx="95.445%" cy="77.265%" r="1.515%"/><rect class="b" height="3.03%" width="3.03%" x="0.0%" y="78.78%"/><rect class="b" height="3.03%" width="3.03%" x="3.03%" y="78.78%"/><rect class="b" height="3.03%" width="3.03%" x="6.06%" y="78.78%"/><rect class="b" height="3.03%" width="3.03%" x="9.09%" y="78.78%"/><rect class="b" height="3.03%" width="3.03%" x="12.12%" y="78.78%"/><rect class="b" height="3.03%" width="3.03%" x="15.15%" y="78.78%"/><rect class="b" height="3.03%" width="3.03%" x="18.18%" y="78.78%"/><circle class="b" cx="37.875%" cy="80.295%" r="1.515%"/><circle class="b" cx="40.905%" cy="80.295%" r="1.515%"/><circle class="b" cx="46.965%" cy="80.295%" r="1.515%"/><circle class="b" cx="49.995%" cy="80.295%" r="1.515%"/><circle class="b" cx="56.055%" cy="80.295%" r="1.515%"/><circle class="b" cx="68.175%" cy="80.295%" r="1.515%"/><circle class="b" cx="71.205%" cy="80.295%" r="1.515%"/><circle class="b" cx="74.235%" cy="80.295%" r="1.515%"/><circle class="b" cx="80.295%" cy="80.295%" r="1.515%"/><circle class="b" cx="86.355%" cy="80.295%" r="1.515%"/><circle class="b" cx="92.415%" cy="80.295%" r="1.515%"/><circle class="b" cx="95.445%" cy="80.295%" r="1.515%"/><rect class="b" height="3.03%" width="3.03%" x="0.0%" y="81.81%"/><rect class="b" height="3.03%" width="3.03%" x="18.18%" y="81.81%"/><circle class="b" cx="25.755%" cy="83.325%" r="1.515%"/><circle class="b" cx="28.785%" cy="83.325%" r="1.515%"/><circle class="b" cx="34.845%" cy="83.325%" r="1.515%"/><circle class="b" cx="37.875%" cy="83.325%" r="1.515%"/><circle class="b" cx="62.115%" cy="83.325%" r="1.515%"/><circle class="b" cx="65.145%" cy="83.325%" r="1.515%"/><circle class="b" cx="68.175%" cy="83.325%" r="1.515%"/><circle class="b" cx="71.205%" cy="83.325%" r="1.515%"/><circle class="b" cx="74.235%" cy="83.325%" r="1.515%"/><circle class="b" cx="86.355%" cy="83.325%" r="1.515%"/><circle class="b" cx="89.385%" cy="83.325%" r="1.515%"/><circle class="b" cx="92.415%" cy="83.325%" r="1.515%"/><rect class="b" height="3.03%" width="3.03%" x="0.0%" y="84.84%"/><rect class="b" height="3.03%" width="3.03%" x="6.06%" y="84.84%"/><rect class="b" height="3.03%" width="3.03%" x="9.09%" y="84.84%"/><rect class="b" height="3.03%" width="3.03%" x="12.12%" y="84.84%"/><rect class="b" height="3.03%" width="3.03%" x="18.18%" y="84.84%"/><circle class="b" cx="25.755%" cy="86.355%" r="1.515%"/><circle class="b" cx="28.785%" cy="86.355%" r="1.515%"/><circle class="b" cx="31.815%" cy="86.355%" r="1.515%"/><circle class="b" cx="37.875%" cy="86.355%" r="1.515%"/><circle class="b" cx="40.905%" cy="86.355%" r="1.515%"/><circle class="b" cx="43.935%" cy="86.355%" r="1.515%"/><circle class="b" cx="56.055%" cy="86.355%" r="1.515%"/><circle class="b" cx="65.145%" cy="86.355%" r="1.515%"/><circle class="b" cx="74.235%" cy="86.355%" r="1.515%"/><circle class="b" cx="77.265%" cy="86.355%" r="1.515%"/><circle class="b" cx="80.295%" cy="86.355%" r="1.515%"/><circle class="b" cx="83.325%" cy="86.355%" r="1.515%"/><circle class="b" cx="86.355%" cy="86.355%" r="1.515%"/><circle class="b" cx="89.385%" cy="86.355%" r="1.515%"/><circle class="b" cx="98.475%" cy="86.355%" r="1.515%"/><rect class="b" height="3.03%" width="3.03%" x="0.0%" y="87.87%"/><rect class="b" height="3.03%" width="3.03%" x="6.06%" y="87.87%"/><rect class="b" height="3.03%" width="3.03%" x="9.09%" y="87.87%"/><rect class="b" height="3.03%" width="3.03%" x="12.12%" y="87.87%"/><rect class="b" height="3.03%" width="3.03%" x="18.18%" y="87.87%"/><circle class="b" cx="25.755%" cy="89.385%" r="1.515%"/><circle class="b" cx="28.785%" cy="89.385%" r="1.515%"/><circle class="b" cx="43.935%" cy="89.385%" r="1.515%"/><circle class="b" cx="46.965%" cy="89.385%" r="1.515%"/><circle class="b" cx="49.995%" cy="89.385%" r="1.515%"/><circle class="b" cx="53.025%" cy="89.385%" r="1.515%"/><circle class="b" cx="62.115%" cy="89.385%" r="1.515%"/><circle class="b" cx="65.145%" cy="89.385%" r="1.515%"/><circle class="b" cx="71.205%" cy="89.385%" r="1.515%"/><circle class="b" cx="74.235%" cy="89.385%" r="1.515%"/><circle class="b" cx="77.265%" cy="89.385%" r="1.515%"/><circle class="b" cx="86.355%" cy="89.385%" r="1.515%"/><circle class="b" cx="89.385%" cy="89.385%" r="1.515%"/><circle class="b" cx="95.445%" cy="89.385%" r="1.515%"/><circle class="b" cx="98.475%" cy="89.385%" r="1.515%"/><rect class="b" height="3.03%" width="3.03%" x="0.0%" y="90.9%"/><rect class="b" height="3.03%" width="3.03%" x="6.06%" y="90.9%"/><rect class="b" height="3.03%" width="3.03%" x="9.09%" y="90.9%"/><rect class="b" height="3.03%" width="3.03%" x="12.12%" y="90.9%"/><rect class="b" height="3.03%" width="3.03%" x="18.18%" y="90.9%"/><circle class="b" cx="25.755%" cy="92.415%" r="1.515%"/><circle class="b" cx="31.815%" cy="92.415%" r="1.515%"/><circle class="b" cx="34.845%" cy="92.415%" r="1.515%"/><circle class="b" cx="37.875%" cy="92.415%" r="1.515%"/><circle class="b" cx="43.935%" cy="92.415%" r="1.515%"/><circle class="b" cx="53.025%" cy="92.415%" r="1.515%"/><circle class="b" cx="59.085%" cy="92.415%" r="1.515%"/><circle class="b" cx="71.205%" cy="92.415%" r="1.515%"/><circle class="b" cx="74.235%" cy="92.415%" r="1.515%"/><circle class="b" cx="80.295%" cy="92.415%" r="1.515%"/><circle class="b" cx="83.325%" cy="92.415%" r="1.515%"/><rect class="b" height="3.03%" width="3.03%" x="0.0%" y="93.93%"/><rect class="b" height="3.03%" width="3.03%" x="18.18%" y="93.93%"/><circle class="b" cx="28.785%" cy="95.445%" r="1.515%"/><circle class="b" cx="31.815%" cy="95.445%" r="1.515%"/><circle class="b" cx="37.875%" cy="95.445%" r="1.515%"/><circle class="b" cx="49.995%" cy="95.445%" r="1.515%"/><circle class="b" cx="59.085%" cy="95.445%" r="1.515%"/><circle class="b" cx="62.115%" cy="95.445%" r="1.515%"/><circle class="b" cx="65.145%" cy="95.445%" r="1.515%"/><circle class="b" cx="68.175%" cy="95.445%" r="1.515%"/><circle class="b" cx="71.205%" cy="95.445%" r="1.515%"/><circle class="b" cx="74.235%" cy="95.445%" r="1.515%"/><circle class="b" cx="77.265%" cy="95.445%" r="1.515%"/><circle class="b" cx="86.355%" cy="95.445%" r="1.515%"/><circle class="b" cx="89.385%" cy="95.445%" r="1.515%"/><circle class="b" cx="92.415%" cy="95.445%" r="1.515%"/><rect class="b" height="3.03%" width="3.03%" x="0.0%" y="96.96%"/><rect class="b" height="3.03%" width="3.03%" x="3.03%" y="96.96%"/><rect class="b" height="3.03%" width="3.03%" x="6.06%" y="96.96%"/><rect class="b" height="3.03%" width="3.03%" x="9.09%" y="96.96%"/><rect class="b" height="3.03%" width="3.03%" x="12.12%" y="96.96%"/><rect class="b" height="3.03%" width="3.03%" x="15.15%" y="96.96%"/><rect class="b" height="3.03%" width="3.03%" x="18.18%" y="96.96%"/><circle class="b" cx="25.755%" cy="98.475%" r="1.515%"/><circle class="b" cx="34.845%" cy="98.475%" r="1.515%"/><circle class="b" cx="43.935%" cy="98.475%" r="1.515%"/><circle class="b" cx="59.085%" cy="98.475%" r="1.515%"/><circle class="b" cx="68.175%" cy="98.475%" r="1.515%"/><circle class="b" cx="71.205%" cy="98.475%" r="1.515%"/><circle class="b" cx="74.235%" cy="98.475%" r="1.515%"/><circle class="b" cx="83.325%" cy="98.475%" r="1.515%"/><circle class="b" cx="92.415%" cy="98.475%" r="1.515%"/><circle class="b" cx="95.445%" cy="98.475%" r="1.515%"/></g>
<g transform="translate(-503.5,742) scale(2.2104) rotate(-90)"><path class="b" transform="translate(0,0)" d="M257.67,308.16l.09.88a2.47,2.47,0,0,1,.84-.74,2.3,2.3,0,0,1,1.08-.26,2.77,2.77,0,0,1,.89.14,1.78,1.78,0,0,1,.69.44,1.87,1.87,0,0,1,.45.78,3.42,3.42,0,0,1,.17,1.14v4h-1.41v-3.94a2,2,0,0,0-.09-.65,1.06,1.06,0,0,0-.25-.43,1,1,0,0,0-.41-.22,1.84,1.84,0,0,0-.55-.07,1.52,1.52,0,0,0-.8.21,1.64,1.64,0,0,0-.56.55v4.55h-1.4v-6.34Z"/><path class="b" transform="translate(8,0)" d="M261,311.47h1.07v1.13H261v1.9h-1.41v-1.9h-3.7l0-.85,3.69-5.78H261Zm-3.7,0h2.29v-3.63l-.15.27Z"/><path class="b" transform="translate(16,0)" d="M261.92,306v5.71a3.29,3.29,0,0,1-.21,1.2,2.74,2.74,0,0,1-.57.93,2.54,2.54,0,0,1-.9.6,3.09,3.09,0,0,1-1.17.21,3.06,3.06,0,0,1-1.15-.21,2.46,2.46,0,0,1-.88-.6,2.63,2.63,0,0,1-.58-.92,3.88,3.88,0,0,1-.21-1.21V306h1.39v5.71a2.72,2.72,0,0,0,.1.72,1.67,1.67,0,0,0,.27.57,1.18,1.18,0,0,0,.43.37,1.48,1.48,0,0,0,.61.13,1.52,1.52,0,0,0,.62-.13,1.24,1.24,0,0,0,.45-.37,1.69,1.69,0,0,0,.28-.57,3.21,3.21,0,0,0,.1-.72V306Z"/><path class="b" transform="translate(24,0)" d="M258.58,311.73l-.77.73v2h-1.4v-9h1.4v5.3l.6-.66,1.86-2H262l-2.45,2.64,2.82,3.7h-1.74Z"/><path class="b" transform="translate(32,0)" d="M261.89,314.5h-1.42l-2.77-5.87v5.87h-1.42V306h1.42l2.77,5.85V306h1.42Z"/><path class="b" transform="translate(40,0)" d="M261.92,306v5.71a3.29,3.29,0,0,1-.21,1.2,2.74,2.74,0,0,1-.57.93,2.54,2.54,0,0,1-.9.6,3.09,3.09,0,0,1-1.17.21,3.06,3.06,0,0,1-1.15-.21,2.46,2.46,0,0,1-.88-.6,2.63,2.63,0,0,1-.58-.92,3.88,3.88,0,0,1-.21-1.21V306h1.39v5.71a2.72,2.72,0,0,0,.1.72,1.67,1.67,0,0,0,.27.57,1.18,1.18,0,0,0,.43.37,1.48,1.48,0,0,0,.61.13,1.52,1.52,0,0,0,.62-.13,1.24,1.24,0,0,0,.45-.37,1.69,1.69,0,0,0,.28-.57,3.21,3.21,0,0,0,.1-.72V306Z"/><path class="b" transform="translate(48,0)" d="M262.21,310.86a4.88,4.88,0,0,1-.07.85,5.84,5.84,0,0,1-.22.82,4.5,4.5,0,0,1-.36.73,3.37,3.37,0,0,1-.51.61l1.45,1.25-.93.85-1.66-1.46-.39.08a3,3,0,0,1-.43,0,2.65,2.65,0,0,1-1.35-.33,2.81,2.81,0,0,1-1-.85,3.64,3.64,0,0,1-.57-1.21,4.92,4.92,0,0,1-.19-1.37v-1.09a6.53,6.53,0,0,1,.08-1,4.55,4.55,0,0,1,.26-.93,3.58,3.58,0,0,1,.42-.8,2.94,2.94,0,0,1,.59-.63,2.59,2.59,0,0,1,.77-.41,2.87,2.87,0,0,1,.95-.15,2.83,2.83,0,0,1,1.37.32,3,3,0,0,1,1,.87,4.11,4.11,0,0,1,.58,1.25,5.94,5.94,0,0,1,.19,1.48Zm-1.41-1.11a6.37,6.37,0,0,0-.08-1,3.28,3.28,0,0,0-.27-.87,1.77,1.77,0,0,0-.53-.62,1.45,1.45,0,0,0-.83-.23,1.42,1.42,0,0,0-.82.23,1.65,1.65,0,0,0-.5.63,2.77,2.77,0,0,0-.26.87,6.35,6.35,0,0,0-.08,1v1.11a5.43,5.43,0,0,0,.08.88,2.84,2.84,0,0,0,.26.84,1.66,1.66,0,0,0,.5.61,1.54,1.54,0,0,0,1.65,0,1.74,1.74,0,0,0,.53-.61,3.11,3.11,0,0,0,.27-.83,5.65,5.65,0,0,0,.08-.89Z"/><path class="b" transform="translate(56,0)" d="M260.47,313.63a2.17,2.17,0,0,1-.78.73,2,2,0,0,1-1,.26,2.66,2.66,0,0,1-.9-.15,1.66,1.66,0,0,1-.69-.48,2.09,2.09,0,0,1-.45-.85,4,4,0,0,1-.16-1.23v-3.75h1.4v3.76a4,4,0,0,0,.06.76,1.21,1.21,0,0,0,.21.47.73.73,0,0,0,.35.25,1.53,1.53,0,0,0,.51.07,1.62,1.62,0,0,0,.9-.22,1.38,1.38,0,0,0,.53-.59v-4.5h1.4v6.34h-1.26Z"/></g>
</svg>
