<svg xmlns="http://www.w3.org/2000/svg" viewBox="0 0 513.75 147.29"><defs><style>.cls-1{fill:#fff;}</style></defs><g id="Layer_2" data-name="Layer 2"><g id="Layer_1-2" data-name="Layer 1"><path class="cls-1" d="M303.66,105.45Q299,100.74,299,93.12V90.65a.85.85,0,0,1,.95-1H307a.85.85,0,0,1,.95,1v2a10.57,10.57,0,0,0,2.19,7,7,7,0,0,0,5.62,2.61,7.26,7.26,0,0,0,5.67-2.52,10.75,10.75,0,0,0,1-11.47,14,14,0,0,0-3.14-3.76q-2-1.67-6.33-4.91a91.36,91.36,0,0,1-7.62-6.19,22.63,22.63,0,0,1-4.66-6.19,17.79,17.79,0,0,1-1.91-8.47q0-7.71,4.57-12.24A16.22,16.22,0,0,1,315.32,42q7.62,0,12.24,4.86t4.62,12.76V62a.84.84,0,0,1-.95.95h-7.05a.84.84,0,0,1-.95-.95V59.42A10.43,10.43,0,0,0,321,52.51a7.12,7.12,0,0,0-5.72-2.62,6.92,6.92,0,0,0-5.42,2.34,9.4,9.4,0,0,0-2.1,6.52,10,10,0,0,0,2.1,6.43,44.86,44.86,0,0,0,8.09,7q5.72,4.29,8.62,7A20,20,0,0,1,331.08,85a16.94,16.94,0,0,1,1.57,7.57q0,8-4.66,12.81a16.25,16.25,0,0,1-12.19,4.81Q308.27,110.17,303.66,105.45Z"/><path class="cls-1" d="M342.89,106q-4.33-4.14-4.33-11V75.32a14.45,14.45,0,0,1,4.38-10.95q4.38-4.2,11.71-4.19t11.8,4.19a14.45,14.45,0,0,1,4.38,10.95V95a14.41,14.41,0,0,1-4.38,11q-4.38,4.16-11.8,4.15T342.89,106Zm16.8-6a8,8,0,0,0,2-5.67V75.89a8,8,0,0,0-2-5.62,6.52,6.52,0,0,0-5-2.19,6.38,6.38,0,0,0-5,2.19,8.13,8.13,0,0,0-1.95,5.62V94.36a8.1,8.1,0,0,0,1.95,5.67,6.47,6.47,0,0,0,5,2.14A6.62,6.62,0,0,0,359.69,100Z"/><path class="cls-1" d="M401.21,60.94h7.23a.85.85,0,0,1,1,1v46.56a.84.84,0,0,1-1,1h-7.23a.83.83,0,0,1-.95-1v-2.76c0-.19-.05-.29-.15-.29a.55.55,0,0,0-.33.2q-2.85,4.47-9.14,4.47a12.62,12.62,0,0,1-9.24-3.47q-3.52-3.48-3.52-10.62V61.89a.84.84,0,0,1,.95-1h7.24a.84.84,0,0,1,.95,1V94q0,8.19,6.48,8.19a5.88,5.88,0,0,0,5-2.34,10.38,10.38,0,0,0,1.77-6.42V61.89A.84.84,0,0,1,401.21,60.94Z"/><path class="cls-1" d="M440.34,61.51a1,1,0,0,1,.48,1.24L439.39,70c-.06.58-.45.77-1.14.58a7.36,7.36,0,0,0-2.67-.48,11,11,0,0,0-1.71.19A6.55,6.55,0,0,0,429,73.51,12.67,12.67,0,0,0,427,80.65v27.8a.84.84,0,0,1-.95,1h-7.24a.84.84,0,0,1-.95-1V61.89a.84.84,0,0,1,.95-1h7.24a.84.84,0,0,1,.95,1v5.52c0,.19.05.31.14.34s.18,0,.24-.24q2.76-7.05,8.86-7.05A7.68,7.68,0,0,1,440.34,61.51Z"/><path class="cls-1" d="M448.29,106.07Q444,102,444,95V75.32a14.53,14.53,0,0,1,4.33-10.95q4.33-4.2,11.67-4.19A18.75,18.75,0,0,1,468.48,62a13.68,13.68,0,0,1,5.62,5,13.51,13.51,0,0,1,1.95,7.19v1.24a.84.84,0,0,1-.95.95l-7.24.28a.83.83,0,0,1-.95-.95v-1a6.51,6.51,0,0,0-2-4.76,6.76,6.76,0,0,0-5-2,6.26,6.26,0,0,0-5,2.19,8.24,8.24,0,0,0-1.9,5.62V94.46a8.24,8.24,0,0,0,1.9,5.61,6.26,6.26,0,0,0,5,2.19,6.72,6.72,0,0,0,5-2,6.51,6.51,0,0,0,2-4.76v-1a.84.84,0,0,1,.95-1l7.24.09a.85.85,0,0,1,.95,1v1.42a13,13,0,0,1-4.38,10.14q-4.38,4-11.71,4T448.29,106.07Z"/><path class="cls-1" d="M512.8,88.93H491.28a.34.34,0,0,0-.38.38v5.15a8.24,8.24,0,0,0,1.9,5.61,6.26,6.26,0,0,0,5,2.19,6.46,6.46,0,0,0,4.47-1.61,7.22,7.22,0,0,0,2.29-4.19,1,1,0,0,1,1-.77l7.05.38a.87.87,0,0,1,.71.29.73.73,0,0,1,.15.67,14.21,14.21,0,0,1-4.72,9.66q-4,3.48-11,3.48-7.33,0-11.67-4.1t-4.33-10.95V75.32a14.53,14.53,0,0,1,4.33-10.95q4.34-4.2,11.67-4.19t11.71,4.19a14.64,14.64,0,0,1,4.28,10.95V88A.84.84,0,0,1,512.8,88.93Zm-20-18.66a8.24,8.24,0,0,0-1.9,5.62v5a.33.33,0,0,0,.38.38h13.05a.33.33,0,0,0,.38-.38v-5a8.25,8.25,0,0,0-1.91-5.62,6.35,6.35,0,0,0-5-2.19A6.26,6.26,0,0,0,492.8,70.27Z"/><path class="cls-1" d="M210.08,90.57V37.31h3.57c2.86,0,4.82.63,5.83,1.87,1.25,1.53,1.93,4.6,1.93,8.65V80.05c0,4-.68,7.12-1.93,8.65-1,1.24-3,1.87-5.83,1.87Zm51.58,39.28a17.49,17.49,0,0,1-17.53,17.43H17.53A17.49,17.49,0,0,1,0,129.86V17.44A17.48,17.48,0,0,1,17.53,0h226.6a17.48,17.48,0,0,1,17.53,17.43ZM196.42,30.47V97.31a6.64,6.64,0,0,0,6.88,6.84h10.35c7.18,0,12.72-2.31,16.46-6.87,3.36-4,5.06-9.79,5.06-17.23V47.83c0-7.44-1.71-13.23-5.06-17.23-3.74-4.55-9.28-6.87-16.46-6.87H203.3a6.85,6.85,0,0,0-4.88,2A6.63,6.63,0,0,0,196.42,30.47Zm-22.16,0V97.31a6.88,6.88,0,0,0,13.76,0V30.47a6.64,6.64,0,0,0-2-4.75,7,7,0,0,0-9.77,0A6.69,6.69,0,0,0,174.26,30.47Zm-101.5-6a1.1,1.1,0,0,1-.14.09,3.32,3.32,0,0,0-2.93,3.63q0,34.67,0,69.32c0,2.15.07,4.31.23,6.45a25.18,25.18,0,0,0,3.31,10.9,16.57,16.57,0,0,0,9.71,8,24.86,24.86,0,0,0,10.64.85,19.5,19.5,0,0,0,6.68-1.92,18,18,0,0,0,8.17-9.26,31.15,31.15,0,0,0,2.25-12.39q0-36.14,0-72.27a3.28,3.28,0,0,0-.94-2.29,4.3,4.3,0,0,0-2.14-1.09h-.8a8.88,8.88,0,0,0-1.35.55,3.51,3.51,0,0,0-1.63,3.32q0,34.59,0,69.16,0,3-.23,6a18.37,18.37,0,0,1-2.83,8.75A9.4,9.4,0,0,1,95,116.51a21.61,21.61,0,0,1-7.69.38,10.08,10.08,0,0,1-6.94-3.56,15.63,15.63,0,0,1-2.73-5.24,30.43,30.43,0,0,1-1.13-9.35q0-35.4,0-70.8a3.33,3.33,0,0,0-2.7-3.37,1.45,1.45,0,0,1-.26-.11Zm89.9,25.38a1.81,1.81,0,0,1-.09-.31c-.08-1.28-.13-2.57-.25-3.84a28.77,28.77,0,0,0-3-10.66,17.6,17.6,0,0,0-11-9.29,27.62,27.62,0,0,0-14.07-.35,17.61,17.61,0,0,0-9.77,5.85,22.61,22.61,0,0,0-4.32,8.27,39.1,39.1,0,0,0-1.48,11.58q0,22.2,0,44.41c0,2.62.12,5.24.34,7.85a26.19,26.19,0,0,0,3.55,11.3,17.52,17.52,0,0,0,10.17,8.24,27.73,27.73,0,0,0,13.84.5,17.77,17.77,0,0,0,12.18-8.86,28.9,28.9,0,0,0,3.66-12.73c.07-1,.15-2,.22-3V96.63a2.26,2.26,0,0,1-.11-.37,3,3,0,0,0-2.75-2.59,6.37,6.37,0,0,0-1.31,0,2.88,2.88,0,0,0-2.79,2.66c-.14,1.17-.1,2.37-.16,3.55a28.85,28.85,0,0,1-1.87,9.22c-1.29,3.14-3.26,5.7-6.52,7a17.73,17.73,0,0,1-12.37.24c-3.86-1.3-6.2-4.12-7.55-7.85a31.29,31.29,0,0,1-1.68-10.63q0-18.12,0-36.24c0-4,0-8,0-12a28,28,0,0,1,1.76-9.75,12,12,0,0,1,9.15-8,19.92,19.92,0,0,1,9,.17,10.89,10.89,0,0,1,6.3,4.2,16.73,16.73,0,0,1,2.52,5.16,35.73,35.73,0,0,1,1.28,10.18,3.12,3.12,0,0,0,3.14,3.33c2.11.15,3.48-.85,3.81-2.78a1.14,1.14,0,0,1,.09-.26ZM33.22,116.39q0-44.15,0-88.29a3.32,3.32,0,0,0-2.09-3.2,3.42,3.42,0,0,0-4.74,3.24v92.31c0,.16,0,.31,0,.46A3.06,3.06,0,0,0,29.11,124a5.11,5.11,0,0,0,1,.06h29c1.26,0,2.51,0,3.76,0A3.09,3.09,0,0,0,66,121.41a3.35,3.35,0,0,0-2.21-4,5.44,5.44,0,0,0-1.56-.21q-14.13,0-28.26,0h-.79Zm207.09.32a6.92,6.92,0,0,0-7.18-7.14H176a7.14,7.14,0,0,0,0,14.28h57.1A6.92,6.92,0,0,0,240.31,116.71Zm5-97.47H244l-.09.22-2,4.66-2-4.66-.09-.22h-6.76v1.15h2.12v5.73h1.24V20.39h2.11v5.73h1.24V23.06l0-.9,1.59,3.74.09.22h.88l.09-.22,1.6-3.76v4h1.23V19.24Z"/></g></g></svg>