<?xml version="1.0" encoding="utf-8"?>
<!-- Generator: Adobe Illustrator 26.3.1, SVG Export Plug-In . SVG Version: 6.00 Build 0)  -->
<svg version="1.1" id="Layer_1" xmlns="http://www.w3.org/2000/svg" xmlns:xlink="http://www.w3.org/1999/xlink" x="0px" y="0px"
	 viewBox="0 0 100 100" style="enable-background:new 0 0 100 100;" xml:space="preserve">
<style type="text/css">
	.st0{fill:#FFFFFF;stroke:#000000;stroke-width:3.9386;stroke-miterlimit:10;}
	.st1{stroke:#000000;stroke-width:2;stroke-miterlimit:10;}
	.st2{stroke:#000000;stroke-width:0.5;stroke-miterlimit:10;}
</style>
<path class="st0" d="M26.4,98c-5.8,0-10.5-4.6-10.5-10.2V12.2C15.9,6.6,20.6,2,26.4,2h47.2c5.8,0,10.5,4.6,10.5,10.2v75.6
	c0,5.6-4.7,10.2-10.5,10.2H26.4z"/>
<g transform="translate(23,92) scale(.538) rotate(-90)">
	<circle cx="12.5" cy="4.2" r="4.2"/>
	<rect x="41.7" y="0" transform="matrix(-2.535182e-06 -1 1 -2.535182e-06 41.6966 50.0256)" width="8.3" height="8.3"/>
	<rect x="50" y="0" transform="matrix(-2.535182e-06 -1 1 -2.535182e-06 50.0257 58.3547)" width="8.3" height="8.3"/>
	<rect x="58.4" y="0" transform="matrix(-2.535182e-06 -1 1 -2.535182e-06 58.3548 66.6837)" width="8.3" height="8.3"/>
	<rect x="66.7" y="0" transform="matrix(-2.535182e-06 -1 1 -2.535182e-06 66.6839 75.0128)" width="8.3" height="8.3"/>
	<rect x="75" y="0" transform="matrix(-2.535182e-06 -1 1 -2.535182e-06 75.013 83.3419)" width="8.3" height="8.3"/>
	<rect x="83.3" y="0" transform="matrix(-2.535182e-06 -1 1 -2.535182e-06 83.3421 91.6709)" width="8.3" height="8.3"/>
	<rect x="91.7" y="0" transform="matrix(-2.535182e-06 -1 1 -2.535182e-06 91.6712 100)" width="8.3" height="8.3"/>
	<circle cx="4.2" cy="12.5" r="4.2"/>
	<circle cx="12.5" cy="12.5" r="4.2"/>
	<circle cx="29.2" cy="12.5" r="4.2"/>
	<rect x="41.7" y="8.3" transform="matrix(-2.535182e-06 -1 1 -2.535182e-06 33.3676 58.3547)" width="8.3" height="8.3"/>
	<rect x="91.7" y="8.3" transform="matrix(-2.535182e-06 -1 1 -2.535182e-06 83.3421 108.3291)" width="8.3" height="8.3"/>
	<circle cx="20.9" cy="20.8" r="4.2"/>
	<circle cx="29.2" cy="20.8" r="4.2"/>
	<rect x="41.7" y="16.7" transform="matrix(-2.535182e-06 -1 1 -2.535182e-06 25.0385 66.6838)" width="8.3" height="8.3"/>
	<rect x="58.4" y="16.7" transform="matrix(-2.535182e-06 -1 1 -2.535182e-06 41.6967 83.3419)" width="8.3" height="8.3"/>
	<rect x="66.7" y="16.7" transform="matrix(-2.535182e-06 -1 1 -2.535182e-06 50.0258 91.671)" width="8.3" height="8.3"/>
	<rect x="75" y="16.7" transform="matrix(-2.535182e-06 -1 1 -2.535182e-06 58.3549 100.0001)" width="8.3" height="8.3"/>
	<rect x="91.7" y="16.7" transform="matrix(-2.535182e-06 -1 1 -2.535182e-06 75.013 116.6582)" width="8.3" height="8.3"/>
	<circle cx="4.2" cy="29.2" r="4.2"/>
	<circle cx="12.5" cy="29.2" r="4.2"/>
	<circle cx="29.2" cy="29.2" r="4.2"/>
	<rect x="41.7" y="25" transform="matrix(-2.535182e-06 -1 1 -2.535182e-06 16.7094 75.0129)" width="8.3" height="8.3"/>
	<rect x="58.4" y="25" transform="matrix(-2.535182e-06 -1 1 -2.535182e-06 33.3676 91.671)" width="8.3" height="8.3"/>
	<rect x="66.7" y="25" transform="matrix(-2.535182e-06 -1 1 -2.535182e-06 41.6967 100.0001)" width="8.3" height="8.3"/>
	<rect x="75" y="25" transform="matrix(-2.535182e-06 -1 1 -2.535182e-06 50.0258 108.3291)" width="8.3" height="8.3"/>
	<rect x="91.7" y="25" transform="matrix(-2.535182e-06 -1 1 -2.535182e-06 66.684 124.9873)" width="8.3" height="8.3"/>
	<circle cx="4.2" cy="37.5" r="4.2"/>
	<circle cx="29.2" cy="37.5" r="4.2"/>
	<rect x="41.7" y="33.3" transform="matrix(-2.535182e-06 -1 1 -2.535182e-06 8.3804 83.342)" width="8.3" height="8.3"/>
	<rect x="58.4" y="33.3" transform="matrix(-2.535182e-06 -1 1 -2.535182e-06 25.0385 100.0001)" width="8.3" height="8.3"/>
	<rect x="66.7" y="33.3" transform="matrix(-2.535182e-06 -1 1 -2.535182e-06 33.3676 108.3292)" width="8.3" height="8.3"/>
	<rect x="75" y="33.3" transform="matrix(-2.535182e-06 -1 1 -2.535182e-06 41.6967 116.6582)" width="8.3" height="8.3"/>
	<rect x="91.7" y="33.3" transform="matrix(-2.535182e-06 -1 1 -2.535182e-06 58.3549 133.3164)" width="8.3" height="8.3"/>
	<circle cx="4.2" cy="45.8" r="4.2"/>
	<circle cx="12.5" cy="45.8" r="4.2"/>
	<circle cx="29.2" cy="45.8" r="4.2"/>
	<rect x="41.7" y="41.6" transform="matrix(-2.535182e-06 -1 1 -2.535182e-06 5.131622e-02 91.671)" width="8.3" height="8.3"/>
	<rect x="91.7" y="41.6" transform="matrix(-2.535182e-06 -1 1 -2.535182e-06 50.0258 141.6454)" width="8.3" height="8.3"/>
	<circle cx="12.5" cy="54.1" r="4.2"/>
	<circle cx="29.2" cy="54.1" r="4.2"/>
	<rect x="41.7" y="50" transform="matrix(-2.535182e-06 -1 1 -2.535182e-06 -8.2778 100.0001)" width="8.3" height="8.3"/>
	<rect x="50" y="50" transform="matrix(-2.535182e-06 -1 1 -2.535182e-06 5.133337e-02 108.3292)" width="8.3" height="8.3"/>
	<rect x="58.4" y="50" transform="matrix(-2.535182e-06 -1 1 -2.535182e-06 8.3804 116.6582)" width="8.3" height="8.3"/>
	<rect x="66.7" y="50" transform="matrix(-2.535182e-06 -1 1 -2.535182e-06 16.7095 124.9873)" width="8.3" height="8.3"/>
	<rect x="75" y="50" transform="matrix(-2.535182e-06 -1 1 -2.535182e-06 25.0386 133.3164)" width="8.3" height="8.3"/>
	<rect x="83.3" y="50" transform="matrix(-2.535182e-06 -1 1 -2.535182e-06 33.3677 141.6454)" width="8.3" height="8.3"/>
	<rect x="91.7" y="50" transform="matrix(-2.535182e-06 -1 1 -2.535182e-06 41.6968 149.9745)" width="8.3" height="8.3"/>
	<circle cx="29.2" cy="62.5" r="4.2"/>
	<circle cx="4.2" cy="70.8" r="4.2"/>
	<circle cx="12.5" cy="70.8" r="4.2"/>
	<circle cx="20.9" cy="70.8" r="4.2"/>
	<circle cx="37.5" cy="70.8" r="4.2"/>
	<circle cx="45.9" cy="70.8" r="4.2"/>
	<circle cx="70.8" cy="70.8" r="4.2"/>
	<circle cx="79.2" cy="70.8" r="4.2"/>
	<circle cx="87.5" cy="70.8" r="4.2"/>
	<circle cx="4.2" cy="79.1" r="4.2"/>
	<circle cx="12.5" cy="79.1" r="4.2"/>
	<circle cx="20.9" cy="79.1" r="4.2"/>
	<circle cx="37.5" cy="79.1" r="4.2"/>
	<circle cx="54.2" cy="79.1" r="4.2"/>
	<circle cx="62.5" cy="79.1" r="4.2"/>
	<circle cx="70.8" cy="79.1" r="4.2"/>
	<circle cx="79.2" cy="79.1" r="4.2"/>
	<circle cx="87.5" cy="79.1" r="4.2"/>
	<circle cx="20.9" cy="87.5" r="4.2"/>
	<circle cx="37.5" cy="87.5" r="4.2"/>
	<circle cx="45.9" cy="87.5" r="4.2"/>
	<circle cx="70.8" cy="87.5" r="4.2"/>
	<circle cx="87.5" cy="87.5" r="4.2"/>
	<circle cx="95.8" cy="87.5" r="4.2"/>
	<circle cx="12.5" cy="95.8" r="4.2"/>
	<circle cx="20.9" cy="95.8" r="4.2"/>
	<circle cx="37.5" cy="95.8" r="4.2"/>
	<circle cx="45.9" cy="95.8" r="4.2"/>
	<circle cx="54.2" cy="95.8" r="4.2"/>
	<circle cx="62.5" cy="95.8" r="4.2"/>
	<circle cx="70.8" cy="95.8" r="4.2"/>
	<circle cx="95.8" cy="95.8" r="4.2"/>
</g>
<g transform="translate(15,0)">
	<path class="st1" d="M17.5,32.8h-8c-0.4,0-0.6-0.2-0.6-0.6V9.4C8.9,9.3,9,9.1,9.1,9c0.1-0.1,0.2-0.2,0.4-0.2c0.1,0,0.3,0.1,0.4,0.2
		c0.1,0.1,0.2,0.3,0.2,0.4v22.3h7.4c0.2,0,0.3,0.1,0.4,0.2c0.1,0.1,0.2,0.2,0.2,0.4C18.1,32.6,17.9,32.8,17.5,32.8z"/>
	<path class="st1" d="M24.3,32.8c-0.6,0-1.1-0.1-1.7-0.2c-0.6-0.2-1.1-0.5-1.6-0.9c-0.5-0.4-0.9-1.1-1.2-1.8
		c-0.3-0.8-0.5-1.8-0.5-2.9V9.5c0-0.1,0.1-0.3,0.2-0.4C19.7,9,19.8,8.9,20,8.9c0.1,0,0.3,0.1,0.4,0.2c0.1,0.1,0.2,0.2,0.2,0.4V27
		c0,1.1,0.1,1.9,0.4,2.5c0.2,0.6,0.5,1.1,0.9,1.5c0.4,0.3,0.8,0.6,1.2,0.7c0.4,0.1,0.9,0.1,1.3,0.1c0.4,0,0.8-0.1,1.2-0.1
		c0.4-0.1,0.8-0.3,1.2-0.7c0.4-0.3,0.7-0.8,0.9-1.5c0.2-0.7,0.4-1.5,0.4-2.5V9.5c0-0.1,0.1-0.3,0.2-0.4s0.2-0.2,0.4-0.2
		c0.2,0,0.3,0.1,0.4,0.2c0.1,0.1,0.2,0.2,0.2,0.4V27c0,1.2-0.1,2.2-0.4,2.9s-0.7,1.4-1.2,1.8c-0.5,0.4-1,0.8-1.6,0.9
		C25.4,32.7,24.9,32.8,24.3,32.8z"/>
	<path class="st1" d="M36.9,32.8c-0.6,0-1.2-0.1-1.8-0.2c-0.6-0.2-1.2-0.5-1.7-1c-0.5-0.5-0.9-1.2-1.2-1.9c-0.3-0.9-0.5-1.8-0.5-3.2
		V15.2c0-1.3,0.2-2.3,0.5-3.2c0.3-0.9,0.7-1.5,1.2-1.9c0.5-0.5,1.1-0.8,1.7-1c0.6-0.2,1.2-0.2,1.8-0.2c0.6,0,1.2,0.1,1.8,0.2
		c0.6,0.2,1.2,0.5,1.7,1s0.9,1.1,1.2,1.9c0.3,0.9,0.5,1.8,0.5,3.2c0,0.4-0.2,0.6-0.6,0.6s-0.6-0.2-0.6-0.6c0-1.8-0.4-3.1-1.1-4
		c-0.6-0.9-1.6-1.3-2.9-1.3c-1.3,0-2.2,0.4-2.9,1.3c-0.7,0.9-1.1,2.2-1.1,4v11.3c0,1.8,0.4,3.1,1.1,4c0.7,0.9,1.7,1.3,2.9,1.3
		c1.4,0,2.3-0.4,2.9-1.3c0.7-0.9,1.1-2.2,1.1-4c0-0.4,0.2-0.6,0.6-0.6S42,26,42,26.4c0,1.4-0.2,2.4-0.5,3.2
		c-0.3,0.8-0.7,1.5-1.2,1.9c-0.5,0.5-1.1,0.8-1.7,1C38.2,32.7,37.5,32.8,36.9,32.8z"/>
	<path class="st2" d="M46.5,8.4c-0.5,0-0.9,0.2-1.3,0.5c-0.4,0.3-0.5,0.8-0.5,1.3v16.2c0,1,0.8,1.8,1.8,1.8c1,0,1.8-0.8,1.8-1.8
		V10.2c0-0.5-0.2-0.9-0.5-1.3C47.4,8.5,46.9,8.4,46.5,8.4z"/>
	<path class="st2" d="M43.6,31.3c0,0.5,0.2,0.9,0.5,1.3c0.3,0.4,0.8,0.5,1.3,0.5h14c1,0,1.8-0.8,1.8-1.8c0-1-0.8-1.8-1.8-1.8h-14
		c-0.5,0-0.9,0.2-1.3,0.5C43.8,30.3,43.6,30.8,43.6,31.3z"/>
	<path class="st2" d="M58.3,10.1c-1-1.2-2.3-1.8-4.1-1.8h-2.5c-0.5,0-0.9,0.2-1.3,0.5C50.2,9.1,50,9.6,50,10.1v16.2
		c0,1,0.8,1.8,1.8,1.8h2.5c1.8,0,3.1-0.6,4.1-1.8c0.9-1,1.3-2.4,1.3-4.3v-7.9C59.6,12.5,59.2,11.1,58.3,10.1z M53.6,11.9h0.8
		c0.7,0,1.2,0.1,1.4,0.4c0.2,0.2,0.5,0.8,0.5,2v7.9c0,1.3-0.3,1.8-0.5,2c-0.2,0.3-0.7,0.4-1.4,0.4h-0.8V11.9z"/>
</g>
</svg>
