<?xml version="1.0" encoding="utf-8"?>
<svg version="1.1" xmlns="http://www.w3.org/2000/svg" viewBox="0 0 100 100" style="enable-background:new 0 0 100 100;" xml:space="preserve" >
<defs><style>rect{shape-rendering:crispEdges;}.a{fill: #fff;stroke: #000;stroke-miterlimit: 10;}.b{fill: #000;}</style></defs>
<g transform="translate(15,0)"><path class="a" d="M11.4,99.5C5.6,99.5,0.9,94.8,0.9,89V11c0-5.8,4.7-10.5,10.5-10.5h47.2c5.8,0,10.5,4.7,10.5,10.5v78 c0,5.8-4.7,10.5-10.5,10.5H11.4z"/></g>
<g transform="translate(23,92) scale(.538) rotate(-90)" style="fill: #000"><rect class="b" height="4.0%" width="4.0%" x="0.0%" y="0.0%"/><rect class="b" height="4.0%" width="4.0%" x="4.0%" y="0.0%"/><rect class="b" height="4.0%" width="4.0%" x="8.0%" y="0.0%"/><rect class="b" height="4.0%" width="4.0%" x="12.0%" y="0.0%"/><rect class="b" height="4.0%" width="4.0%" x="16.0%" y="0.0%"/><rect class="b" height="4.0%" width="4.0%" x="20.0%" y="0.0%"/><rect class="b" height="4.0%" width="4.0%" x="24.0%" y="0.0%"/><circle class="b" cx="46.0%" cy="2.0%" r="2.0%"/><circle class="b" cx="58.0%" cy="2.0%" r="2.0%"/><rect class="b" height="4.0%" width="4.0%" x="72.0%" y="0.0%"/><rect class="b" height="4.0%" width="4.0%" x="76.0%" y="0.0%"/><rect class="b" height="4.0%" width="4.0%" x="80.0%" y="0.0%"/><rect class="b" height="4.0%" width="4.0%" x="84.0%" y="0.0%"/><rect class="b" height="4.0%" width="4.0%" x="88.0%" y="0.0%"/><rect class="b" height="4.0%" width="4.0%" x="92.0%" y="0.0%"/><rect class="b" height="4.0%" width="4.0%" x="96.0%" y="0.0%"/><rect class="b" height="4.0%" width="4.0%" x="0.0%" y="4.0%"/><rect class="b" height="4.0%" width="4.0%" x="24.0%" y="4.0%"/><circle class="b" cx="34.0%" cy="6.0%" r="2.0%"/><circle class="b" cx="42.0%" cy="6.0%" r="2.0%"/><circle class="b" cx="46.0%" cy="6.0%" r="2.0%"/><circle class="b" cx="54.0%" cy="6.0%" r="2.0%"/><circle class="b" cx="58.0%" cy="6.0%" r="2.0%"/><circle class="b" cx="66.0%" cy="6.0%" r="2.0%"/><rect class="b" height="4.0%" width="4.0%" x="72.0%" y="4.0%"/><rect class="b" height="4.0%" width="4.0%" x="96.0%" y="4.0%"/><rect class="b" height="4.0%" width="4.0%" x="0.0%" y="8.0%"/><rect class="b" height="4.0%" width="4.0%" x="8.0%" y="8.0%"/><rect class="b" height="4.0%" width="4.0%" x="12.0%" y="8.0%"/><rect class="b" height="4.0%" width="4.0%" x="16.0%" y="8.0%"/><rect class="b" height="4.0%" width="4.0%" x="24.0%" y="8.0%"/><circle class="b" cx="34.0%" cy="10.0%" r="2.0%"/><circle class="b" cx="42.0%" cy="10.0%" r="2.0%"/><circle class="b" cx="50.0%" cy="10.0%" r="2.0%"/><circle class="b" cx="62.0%" cy="10.0%" r="2.0%"/><circle class="b" cx="66.0%" cy="10.0%" r="2.0%"/><rect class="b" height="4.0%" width="4.0%" x="72.0%" y="8.0%"/><rect class="b" height="4.0%" width="4.0%" x="80.0%" y="8.0%"/><rect class="b" height="4.0%" width="4.0%" x="84.0%" y="8.0%"/><rect class="b" height="4.0%" width="4.0%" x="88.0%" y="8.0%"/><rect class="b" height="4.0%" width="4.0%" x="96.0%" y="8.0%"/><rect class="b" height="4.0%" width="4.0%" x="0.0%" y="12.0%"/><rect class="b" height="4.0%" width="4.0%" x="8.0%" y="12.0%"/><rect class="b" height="4.0%" width="4.0%" x="12.0%" y="12.0%"/><rect class="b" height="4.0%" width="4.0%" x="16.0%" y="12.0%"/><rect class="b" height="4.0%" width="4.0%" x="24.0%" y="12.0%"/><circle class="b" cx="34.0%" cy="14.0%" r="2.0%"/><circle class="b" cx="38.0%" cy="14.0%" r="2.0%"/><circle class="b" cx="42.0%" cy="14.0%" r="2.0%"/><circle class="b" cx="54.0%" cy="14.0%" r="2.0%"/><circle class="b" cx="58.0%" cy="14.0%" r="2.0%"/><circle class="b" cx="66.0%" cy="14.0%" r="2.0%"/><rect class="b" height="4.0%" width="4.0%" x="72.0%" y="12.0%"/><rect class="b" height="4.0%" width="4.0%" x="80.0%" y="12.0%"/><rect class="b" height="4.0%" width="4.0%" x="84.0%" y="12.0%"/><rect class="b" height="4.0%" width="4.0%" x="88.0%" y="12.0%"/><rect class="b" height="4.0%" width="4.0%" x="96.0%" y="12.0%"/><rect class="b" height="4.0%" width="4.0%" x="0.0%" y="16.0%"/><rect class="b" height="4.0%" width="4.0%" x="8.0%" y="16.0%"/><rect class="b" height="4.0%" width="4.0%" x="12.0%" y="16.0%"/><rect class="b" height="4.0%" width="4.0%" x="16.0%" y="16.0%"/><rect class="b" height="4.0%" width="4.0%" x="24.0%" y="16.0%"/><circle class="b" cx="38.0%" cy="18.0%" r="2.0%"/><circle class="b" cx="46.0%" cy="18.0%" r="2.0%"/><circle class="b" cx="54.0%" cy="18.0%" r="2.0%"/><circle class="b" cx="66.0%" cy="18.0%" r="2.0%"/><rect class="b" height="4.0%" width="4.0%" x="72.0%" y="16.0%"/><rect class="b" height="4.0%" width="4.0%" x="80.0%" y="16.0%"/><rect class="b" height="4.0%" width="4.0%" x="84.0%" y="16.0%"/><rect class="b" height="4.0%" width="4.0%" x="88.0%" y="16.0%"/><rect class="b" height="4.0%" width="4.0%" x="96.0%" y="16.0%"/><rect class="b" height="4.0%" width="4.0%" x="0.0%" y="20.0%"/><rect class="b" height="4.0%" width="4.0%" x="24.0%" y="20.0%"/><circle class="b" cx="38.0%" cy="22.0%" r="2.0%"/><circle class="b" cx="54.0%" cy="22.0%" r="2.0%"/><circle class="b" cx="58.0%" cy="22.0%" r="2.0%"/><circle class="b" cx="66.0%" cy="22.0%" r="2.0%"/><rect class="b" height="4.0%" width="4.0%" x="72.0%" y="20.0%"/><rect class="b" height="4.0%" width="4.0%" x="96.0%" y="20.0%"/><rect class="b" height="4.0%" width="4.0%" x="0.0%" y="24.0%"/><rect class="b" height="4.0%" width="4.0%" x="4.0%" y="24.0%"/><rect class="b" height="4.0%" width="4.0%" x="8.0%" y="24.0%"/><rect class="b" height="4.0%" width="4.0%" x="12.0%" y="24.0%"/><rect class="b" height="4.0%" width="4.0%" x="16.0%" y="24.0%"/><rect class="b" height="4.0%" width="4.0%" x="20.0%" y="24.0%"/><rect class="b" height="4.0%" width="4.0%" x="24.0%" y="24.0%"/><circle class="b" cx="34.0%" cy="26.0%" r="2.0%"/><circle class="b" cx="42.0%" cy="26.0%" r="2.0%"/><circle class="b" cx="50.0%" cy="26.0%" r="2.0%"/><circle class="b" cx="58.0%" cy="26.0%" r="2.0%"/><circle class="b" cx="66.0%" cy="26.0%" r="2.0%"/><rect class="b" height="4.0%" width="4.0%" x="72.0%" y="24.0%"/><rect class="b" height="4.0%" width="4.0%" x="76.0%" y="24.0%"/><rect class="b" height="4.0%" width="4.0%" x="80.0%" y="24.0%"/><rect class="b" height="4.0%" width="4.0%" x="84.0%" y="24.0%"/><rect class="b" height="4.0%" width="4.0%" x="88.0%" y="24.0%"/><rect class="b" height="4.0%" width="4.0%" x="92.0%" y="24.0%"/><rect class="b" height="4.0%" width="4.0%" x="96.0%" y="24.0%"/><circle class="b" cx="34.0%" cy="30.0%" r="2.0%"/><circle class="b" cx="42.0%" cy="30.0%" r="2.0%"/><circle class="b" cx="66.0%" cy="30.0%" r="2.0%"/><circle class="b" cx="2.0%" cy="34.0%" r="2.0%"/><circle class="b" cx="26.0%" cy="34.0%" r="2.0%"/><circle class="b" cx="34.0%" cy="34.0%" r="2.0%"/><circle class="b" cx="38.0%" cy="34.0%" r="2.0%"/><circle class="b" cx="42.0%" cy="34.0%" r="2.0%"/><circle class="b" cx="50.0%" cy="34.0%" r="2.0%"/><circle class="b" cx="54.0%" cy="34.0%" r="2.0%"/><circle class="b" cx="58.0%" cy="34.0%" r="2.0%"/><circle class="b" cx="62.0%" cy="34.0%" r="2.0%"/><circle class="b" cx="70.0%" cy="34.0%" r="2.0%"/><circle class="b" cx="74.0%" cy="34.0%" r="2.0%"/><circle class="b" cx="86.0%" cy="34.0%" r="2.0%"/><circle class="b" cx="90.0%" cy="34.0%" r="2.0%"/><circle class="b" cx="94.0%" cy="34.0%" r="2.0%"/><circle class="b" cx="6.0%" cy="38.0%" r="2.0%"/><circle class="b" cx="10.0%" cy="38.0%" r="2.0%"/><circle class="b" cx="14.0%" cy="38.0%" r="2.0%"/><circle class="b" cx="22.0%" cy="38.0%" r="2.0%"/><circle class="b" cx="30.0%" cy="38.0%" r="2.0%"/><circle class="b" cx="34.0%" cy="38.0%" r="2.0%"/><circle class="b" cx="38.0%" cy="38.0%" r="2.0%"/><circle class="b" cx="54.0%" cy="38.0%" r="2.0%"/><circle class="b" cx="58.0%" cy="38.0%" r="2.0%"/><circle class="b" cx="62.0%" cy="38.0%" r="2.0%"/><circle class="b" cx="70.0%" cy="38.0%" r="2.0%"/><circle class="b" cx="78.0%" cy="38.0%" r="2.0%"/><circle class="b" cx="82.0%" cy="38.0%" r="2.0%"/><circle class="b" cx="86.0%" cy="38.0%" r="2.0%"/><circle class="b" cx="90.0%" cy="38.0%" r="2.0%"/><circle class="b" cx="94.0%" cy="38.0%" r="2.0%"/><circle class="b" cx="2.0%" cy="42.0%" r="2.0%"/><circle class="b" cx="10.0%" cy="42.0%" r="2.0%"/><circle class="b" cx="22.0%" cy="42.0%" r="2.0%"/><circle class="b" cx="26.0%" cy="42.0%" r="2.0%"/><circle class="b" cx="30.0%" cy="42.0%" r="2.0%"/><circle class="b" cx="38.0%" cy="42.0%" r="2.0%"/><circle class="b" cx="46.0%" cy="42.0%" r="2.0%"/><circle class="b" cx="50.0%" cy="42.0%" r="2.0%"/><circle class="b" cx="62.0%" cy="42.0%" r="2.0%"/><circle class="b" cx="70.0%" cy="42.0%" r="2.0%"/><circle class="b" cx="74.0%" cy="42.0%" r="2.0%"/><circle class="b" cx="86.0%" cy="42.0%" r="2.0%"/><circle class="b" cx="94.0%" cy="42.0%" r="2.0%"/><circle class="b" cx="98.0%" cy="42.0%" r="2.0%"/><circle class="b" cx="2.0%" cy="46.0%" r="2.0%"/><circle class="b" cx="10.0%" cy="46.0%" r="2.0%"/><circle class="b" cx="30.0%" cy="46.0%" r="2.0%"/><circle class="b" cx="38.0%" cy="46.0%" r="2.0%"/><circle class="b" cx="46.0%" cy="46.0%" r="2.0%"/><circle class="b" cx="58.0%" cy="46.0%" r="2.0%"/><circle class="b" cx="62.0%" cy="46.0%" r="2.0%"/><circle class="b" cx="70.0%" cy="46.0%" r="2.0%"/><circle class="b" cx="74.0%" cy="46.0%" r="2.0%"/><circle class="b" cx="78.0%" cy="46.0%" r="2.0%"/><circle class="b" cx="82.0%" cy="46.0%" r="2.0%"/><circle class="b" cx="86.0%" cy="46.0%" r="2.0%"/><circle class="b" cx="98.0%" cy="46.0%" r="2.0%"/><circle class="b" cx="18.0%" cy="50.0%" r="2.0%"/><circle class="b" cx="26.0%" cy="50.0%" r="2.0%"/><circle class="b" cx="34.0%" cy="50.0%" r="2.0%"/><circle class="b" cx="38.0%" cy="50.0%" r="2.0%"/><circle class="b" cx="42.0%" cy="50.0%" r="2.0%"/><circle class="b" cx="46.0%" cy="50.0%" r="2.0%"/><circle class="b" cx="50.0%" cy="50.0%" r="2.0%"/><circle class="b" cx="62.0%" cy="50.0%" r="2.0%"/><circle class="b" cx="74.0%" cy="50.0%" r="2.0%"/><circle class="b" cx="78.0%" cy="50.0%" r="2.0%"/><circle class="b" cx="98.0%" cy="50.0%" r="2.0%"/><circle class="b" cx="2.0%" cy="54.0%" r="2.0%"/><circle class="b" cx="10.0%" cy="54.0%" r="2.0%"/><circle class="b" cx="14.0%" cy="54.0%" r="2.0%"/><circle class="b" cx="22.0%" cy="54.0%" r="2.0%"/><circle class="b" cx="30.0%" cy="54.0%" r="2.0%"/><circle class="b" cx="54.0%" cy="54.0%" r="2.0%"/><circle class="b" cx="62.0%" cy="54.0%" r="2.0%"/><circle class="b" cx="66.0%" cy="54.0%" r="2.0%"/><circle class="b" cx="78.0%" cy="54.0%" r="2.0%"/><circle class="b" cx="94.0%" cy="54.0%" r="2.0%"/><circle class="b" cx="2.0%" cy="58.0%" r="2.0%"/><circle class="b" cx="14.0%" cy="58.0%" r="2.0%"/><circle class="b" cx="22.0%" cy="58.0%" r="2.0%"/><circle class="b" cx="26.0%" cy="58.0%" r="2.0%"/><circle class="b" cx="42.0%" cy="58.0%" r="2.0%"/><circle class="b" cx="46.0%" cy="58.0%" r="2.0%"/><circle class="b" cx="50.0%" cy="58.0%" r="2.0%"/><circle class="b" cx="54.0%" cy="58.0%" r="2.0%"/><circle class="b" cx="58.0%" cy="58.0%" r="2.0%"/><circle class="b" cx="62.0%" cy="58.0%" r="2.0%"/><circle class="b" cx="66.0%" cy="58.0%" r="2.0%"/><circle class="b" cx="74.0%" cy="58.0%" r="2.0%"/><circle class="b" cx="78.0%" cy="58.0%" r="2.0%"/><circle class="b" cx="82.0%" cy="58.0%" r="2.0%"/><circle class="b" cx="86.0%" cy="58.0%" r="2.0%"/><circle class="b" cx="94.0%" cy="58.0%" r="2.0%"/><circle class="b" cx="98.0%" cy="58.0%" r="2.0%"/><circle class="b" cx="2.0%" cy="62.0%" r="2.0%"/><circle class="b" cx="10.0%" cy="62.0%" r="2.0%"/><circle class="b" cx="14.0%" cy="62.0%" r="2.0%"/><circle class="b" cx="18.0%" cy="62.0%" r="2.0%"/><circle class="b" cx="30.0%" cy="62.0%" r="2.0%"/><circle class="b" cx="34.0%" cy="62.0%" r="2.0%"/><circle class="b" cx="38.0%" cy="62.0%" r="2.0%"/><circle class="b" cx="42.0%" cy="62.0%" r="2.0%"/><circle class="b" cx="46.0%" cy="62.0%" r="2.0%"/><circle class="b" cx="62.0%" cy="62.0%" r="2.0%"/><circle class="b" cx="70.0%" cy="62.0%" r="2.0%"/><circle class="b" cx="78.0%" cy="62.0%" r="2.0%"/><circle class="b" cx="86.0%" cy="62.0%" r="2.0%"/><circle class="b" cx="90.0%" cy="62.0%" r="2.0%"/><circle class="b" cx="98.0%" cy="62.0%" r="2.0%"/><circle class="b" cx="2.0%" cy="66.0%" r="2.0%"/><circle class="b" cx="10.0%" cy="66.0%" r="2.0%"/><circle class="b" cx="26.0%" cy="66.0%" r="2.0%"/><circle class="b" cx="34.0%" cy="66.0%" r="2.0%"/><circle class="b" cx="46.0%" cy="66.0%" r="2.0%"/><circle class="b" cx="62.0%" cy="66.0%" r="2.0%"/><circle class="b" cx="66.0%" cy="66.0%" r="2.0%"/><circle class="b" cx="70.0%" cy="66.0%" r="2.0%"/><circle class="b" cx="74.0%" cy="66.0%" r="2.0%"/><circle class="b" cx="78.0%" cy="66.0%" r="2.0%"/><circle class="b" cx="82.0%" cy="66.0%" r="2.0%"/><circle class="b" cx="90.0%" cy="66.0%" r="2.0%"/><circle class="b" cx="34.0%" cy="70.0%" r="2.0%"/><circle class="b" cx="38.0%" cy="70.0%" r="2.0%"/><circle class="b" cx="50.0%" cy="70.0%" r="2.0%"/><circle class="b" cx="54.0%" cy="70.0%" r="2.0%"/><circle class="b" cx="66.0%" cy="70.0%" r="2.0%"/><circle class="b" cx="82.0%" cy="70.0%" r="2.0%"/><rect class="b" height="4.0%" width="4.0%" x="0.0%" y="72.0%"/><rect class="b" height="4.0%" width="4.0%" x="4.0%" y="72.0%"/><rect class="b" height="4.0%" width="4.0%" x="8.0%" y="72.0%"/><rect class="b" height="4.0%" width="4.0%" x="12.0%" y="72.0%"/><rect class="b" height="4.0%" width="4.0%" x="16.0%" y="72.0%"/><rect class="b" height="4.0%" width="4.0%" x="20.0%" y="72.0%"/><rect class="b" height="4.0%" width="4.0%" x="24.0%" y="72.0%"/><circle class="b" cx="38.0%" cy="74.0%" r="2.0%"/><circle class="b" cx="46.0%" cy="74.0%" r="2.0%"/><circle class="b" cx="66.0%" cy="74.0%" r="2.0%"/><circle class="b" cx="74.0%" cy="74.0%" r="2.0%"/><circle class="b" cx="82.0%" cy="74.0%" r="2.0%"/><circle class="b" cx="98.0%" cy="74.0%" r="2.0%"/><rect class="b" height="4.0%" width="4.0%" x="0.0%" y="76.0%"/><rect class="b" height="4.0%" width="4.0%" x="24.0%" y="76.0%"/><circle class="b" cx="50.0%" cy="78.0%" r="2.0%"/><circle class="b" cx="54.0%" cy="78.0%" r="2.0%"/><circle class="b" cx="62.0%" cy="78.0%" r="2.0%"/><circle class="b" cx="66.0%" cy="78.0%" r="2.0%"/><circle class="b" cx="82.0%" cy="78.0%" r="2.0%"/><circle class="b" cx="94.0%" cy="78.0%" r="2.0%"/><circle class="b" cx="98.0%" cy="78.0%" r="2.0%"/><rect class="b" height="4.0%" width="4.0%" x="0.0%" y="80.0%"/><rect class="b" height="4.0%" width="4.0%" x="8.0%" y="80.0%"/><rect class="b" height="4.0%" width="4.0%" x="12.0%" y="80.0%"/><rect class="b" height="4.0%" width="4.0%" x="16.0%" y="80.0%"/><rect class="b" height="4.0%" width="4.0%" x="24.0%" y="80.0%"/><circle class="b" cx="50.0%" cy="82.0%" r="2.0%"/><circle class="b" cx="58.0%" cy="82.0%" r="2.0%"/><circle class="b" cx="62.0%" cy="82.0%" r="2.0%"/><circle class="b" cx="66.0%" cy="82.0%" r="2.0%"/><circle class="b" cx="70.0%" cy="82.0%" r="2.0%"/><circle class="b" cx="74.0%" cy="82.0%" r="2.0%"/><circle class="b" cx="78.0%" cy="82.0%" r="2.0%"/><circle class="b" cx="82.0%" cy="82.0%" r="2.0%"/><circle class="b" cx="90.0%" cy="82.0%" r="2.0%"/><circle class="b" cx="94.0%" cy="82.0%" r="2.0%"/><circle class="b" cx="98.0%" cy="82.0%" r="2.0%"/><rect class="b" height="4.0%" width="4.0%" x="0.0%" y="84.0%"/><rect class="b" height="4.0%" width="4.0%" x="8.0%" y="84.0%"/><rect class="b" height="4.0%" width="4.0%" x="12.0%" y="84.0%"/><rect class="b" height="4.0%" width="4.0%" x="16.0%" y="84.0%"/><rect class="b" height="4.0%" width="4.0%" x="24.0%" y="84.0%"/><circle class="b" cx="38.0%" cy="86.0%" r="2.0%"/><circle class="b" cx="58.0%" cy="86.0%" r="2.0%"/><circle class="b" cx="66.0%" cy="86.0%" r="2.0%"/><circle class="b" cx="70.0%" cy="86.0%" r="2.0%"/><circle class="b" cx="74.0%" cy="86.0%" r="2.0%"/><circle class="b" cx="94.0%" cy="86.0%" r="2.0%"/><circle class="b" cx="98.0%" cy="86.0%" r="2.0%"/><rect class="b" height="4.0%" width="4.0%" x="0.0%" y="88.0%"/><rect class="b" height="4.0%" width="4.0%" x="8.0%" y="88.0%"/><rect class="b" height="4.0%" width="4.0%" x="12.0%" y="88.0%"/><rect class="b" height="4.0%" width="4.0%" x="16.0%" y="88.0%"/><rect class="b" height="4.0%" width="4.0%" x="24.0%" y="88.0%"/><circle class="b" cx="46.0%" cy="90.0%" r="2.0%"/><circle class="b" cx="50.0%" cy="90.0%" r="2.0%"/><circle class="b" cx="86.0%" cy="90.0%" r="2.0%"/><circle class="b" cx="90.0%" cy="90.0%" r="2.0%"/><circle class="b" cx="98.0%" cy="90.0%" r="2.0%"/><rect class="b" height="4.0%" width="4.0%" x="0.0%" y="92.0%"/><rect class="b" height="4.0%" width="4.0%" x="24.0%" y="92.0%"/><circle class="b" cx="42.0%" cy="94.0%" r="2.0%"/><circle class="b" cx="46.0%" cy="94.0%" r="2.0%"/><circle class="b" cx="58.0%" cy="94.0%" r="2.0%"/><circle class="b" cx="66.0%" cy="94.0%" r="2.0%"/><circle class="b" cx="78.0%" cy="94.0%" r="2.0%"/><circle class="b" cx="82.0%" cy="94.0%" r="2.0%"/><circle class="b" cx="98.0%" cy="94.0%" r="2.0%"/><rect class="b" height="4.0%" width="4.0%" x="0.0%" y="96.0%"/><rect class="b" height="4.0%" width="4.0%" x="4.0%" y="96.0%"/><rect class="b" height="4.0%" width="4.0%" x="8.0%" y="96.0%"/><rect class="b" height="4.0%" width="4.0%" x="12.0%" y="96.0%"/><rect class="b" height="4.0%" width="4.0%" x="16.0%" y="96.0%"/><rect class="b" height="4.0%" width="4.0%" x="20.0%" y="96.0%"/><rect class="b" height="4.0%" width="4.0%" x="24.0%" y="96.0%"/><circle class="b" cx="34.0%" cy="98.0%" r="2.0%"/><circle class="b" cx="42.0%" cy="98.0%" r="2.0%"/><circle class="b" cx="54.0%" cy="98.0%" r="2.0%"/><circle class="b" cx="58.0%" cy="98.0%" r="2.0%"/><circle class="b" cx="66.0%" cy="98.0%" r="2.0%"/><circle class="b" cx="74.0%" cy="98.0%" r="2.0%"/><circle class="b" cx="86.0%" cy="98.0%" r="2.0%"/><circle class="b" cx="98.0%" cy="98.0%" r="2.0%"/></g>
<g transform="translate(15,0)"><path class="b" d="M17,33.1H8.8c-0.4,0-0.6-0.2-0.6-0.6V9.1c0-0.1,0.1-0.3,0.2-0.4c0.1-0.1,0.2-0.2,0.4-0.2 c0.1,0,0.3,0.1,0.4,0.2C9.3,8.8,9.4,9,9.4,9.1V32H17c0.2,0,0.3,0.1,0.4,0.2c0.1,0.1,0.2,0.2,0.2,0.4C17.6,32.9,17.4,33.1,17,33.1z"/><path class="b" d="M24,33.1c-0.6,0-1.1-0.1-1.7-0.2c-0.6-0.2-1.1-0.5-1.6-0.9s-0.9-1.1-1.2-1.8c-0.3-0.8-0.5-1.8-0.5-3v-18 c0-0.1,0.1-0.3,0.2-0.4c0.1-0.1,0.2-0.2,0.4-0.2c0.1,0,0.3,0.1,0.4,0.2c0.1,0.1,0.2,0.2,0.2,0.4v18c0,1.1,0.1,2,0.4,2.6 c0.2,0.6,0.5,1.1,0.9,1.5c0.4,0.3,0.8,0.6,1.2,0.7c0.4,0.1,0.9,0.1,1.3,0.1s0.8-0.1,1.2-0.1c0.4-0.1,0.8-0.3,1.2-0.7 c0.4-0.3,0.7-0.8,0.9-1.5s0.4-1.5,0.4-2.6v-18c0-0.1,0.1-0.3,0.2-0.4c0.1-0.1,0.2-0.2,0.4-0.2c0.2,0,0.3,0.1,0.4,0.2 c0.1,0.1,0.2,0.2,0.2,0.4v18c0,1.2-0.1,2.3-0.4,3s-0.7,1.4-1.2,1.8c-0.5,0.4-1,0.8-1.6,0.9C25.1,33,24.6,33.1,24,33.1z"/><path class="b" d="M37,33.1c-0.6,0-1.2-0.1-1.8-0.2c-0.6-0.2-1.2-0.5-1.7-1s-0.9-1.2-1.2-2C32,29,31.8,28,31.8,26.6V15 c0-1.3,0.2-2.4,0.5-3.3c0.3-0.9,0.7-1.5,1.2-2s1.1-0.8,1.7-1c0.6-0.2,1.2-0.2,1.8-0.2s1.2,0.1,1.8,0.2c0.6,0.2,1.2,0.5,1.7,1 s0.9,1.1,1.2,2s0.5,1.9,0.5,3.3c0,0.4-0.2,0.6-0.6,0.6S41,15.4,41,15c0-1.8-0.4-3.2-1.1-4.1c-0.6-0.9-1.6-1.3-3-1.3 c-1.3,0-2.3,0.4-3,1.3c-0.7,0.9-1.1,2.3-1.1,4.1v11.6c0,1.8,0.4,3.2,1.1,4.1c0.7,0.9,1.7,1.3,3,1.3c1.4,0,2.4-0.4,3-1.3 c0.7-0.9,1.1-2.3,1.1-4.1c0-0.4,0.2-0.6,0.6-0.6s0.6,0.2,0.6,0.6c0,1.4-0.2,2.5-0.5,3.3s-0.7,1.5-1.2,2c-0.5,0.5-1.1,0.8-1.7,1 C38.3,33,37.6,33.1,37,33.1z"/><path class="b" d="M46.8,8.1c-0.5,0-0.9,0.2-1.3,0.5C45.1,8.9,45,9.4,45,9.9v16.7c0,1,0.8,1.8,1.8,1.8s1.8-0.8,1.8-1.8V9.9 c0-0.5-0.2-0.9-0.5-1.3S47.2,8.1,46.8,8.1z"/><path class="b" d="M43.8,31.6c0,0.5,0.2,0.9,0.5,1.3s0.8,0.5,1.3,0.5H60c1,0,1.8-0.8,1.8-1.8S61,29.8,60,29.8H45.6 c-0.5,0-0.9,0.2-1.3,0.5C44,30.6,43.8,31.1,43.8,31.6z"/><path class="b" d="M59,9.8C58,8.6,56.6,8,54.8,8h-2.6c-0.5,0-0.9,0.2-1.3,0.5c-0.3,0.3-0.5,0.8-0.5,1.3v16.7c0,1,0.8,1.8,1.8,1.8 h2.6c1.8,0,3.2-0.6,4.2-1.8c0.9-1,1.3-2.5,1.3-4.4V14C60.3,12.3,59.9,10.8,59,9.8z M54.1,11.7h0.8c0.7,0,1.2,0.1,1.4,0.4 c0.2,0.2,0.5,0.8,0.5,2.1v8.1c0,1.3-0.3,1.9-0.5,2.1c-0.2,0.3-0.7,0.4-1.4,0.4h-0.8V11.7z"/></g>
</svg>